<svg width="52" height="19" viewBox="0 0 52 19" fill="none" xmlns="http://www.w3.org/2000/svg">
<path d="M5.78244 18.2538H1.94197C1.11559 18.2538 0.702406 18.2538 0.454947 18.0934C0.187517 17.9201 0.0188232 17.6294 0.000930098 17.311C-0.0156267 17.0163 0.189071 16.657 0.598467 15.9384L8.68953 1.73626C9.10488 1.0072 9.31255 0.642676 9.57675 0.50699C9.86222 0.360373 10.2007 0.360125 10.4864 0.506324C10.7508 0.641623 10.959 1.00585 11.3754 1.73429L13.3135 5.12462C13.6163 5.65432 13.7677 5.91917 13.8343 6.19862C13.9067 6.50277 13.9069 6.81971 13.8346 7.12393C13.7683 7.40343 13.6171 7.66841 13.3148 8.19837L8.4685 16.6929C8.16174 17.2306 8.00836 17.4994 7.7982 17.7004C7.56946 17.9192 7.29205 18.0804 6.98883 18.1708C6.71024 18.2538 6.40097 18.2538 5.78244 18.2538Z" fill="#FF3D3D"/>
<path d="M18.6891 18.2537H14.2453C13.4149 18.2537 12.9997 18.2537 12.7525 18.0904C12.4854 17.9139 12.3179 17.6181 12.3021 17.2951C12.2875 16.9961 12.4964 16.6319 12.9144 15.9034L15.1326 12.037C15.5452 11.3178 15.7516 10.9581 16.0128 10.8235C16.2952 10.6779 16.629 10.6777 16.9115 10.8228C17.1729 10.9571 17.3798 11.3164 17.7934 12.0351L20.0189 15.9015C20.4385 16.6304 20.6483 16.9948 20.6339 17.294C20.6184 17.6173 20.451 17.9135 20.1838 18.0902C19.9365 18.2537 19.5207 18.2537 18.6891 18.2537Z" fill="#FF3D3D"/>
<path d="M36.966 18.2538H33.2352C32.4325 18.2538 32.0311 18.2538 31.7907 18.0934C31.5309 17.9201 31.367 17.6294 31.3497 17.311C31.3336 17.0163 31.5324 16.657 31.9301 15.9384L39.79 1.73626C40.1935 1.0072 40.3952 0.642676 40.6519 0.50699C40.9292 0.360373 41.258 0.360125 41.5355 0.506324C41.7924 0.641623 41.9946 1.00585 42.3992 1.73429L44.2818 5.12462C44.576 5.65432 44.7231 5.91917 44.7877 6.19862C44.8581 6.50277 44.8583 6.81971 44.7881 7.12393C44.7237 7.40343 44.5768 7.66841 44.2831 8.19837L39.5753 16.6929C39.2773 17.2306 39.1283 17.4994 38.9241 17.7004C38.7019 17.9192 38.4325 18.0804 38.1379 18.1708C37.8673 18.2538 37.5668 18.2538 36.966 18.2538Z" fill="#FF3D3D"/>
<path d="M50.0379 18.2537H45.5941C44.7636 18.2537 44.3484 18.2537 44.1013 18.0904C43.8342 17.9139 43.6667 17.6181 43.6509 17.2951C43.6362 16.9961 43.8452 16.6319 44.2631 15.9034L46.4814 12.037C46.894 11.3178 47.1003 10.9581 47.3616 10.8235C47.6439 10.6779 47.9777 10.6777 48.2603 10.8228C48.5217 10.9571 48.7285 11.3164 49.1422 12.0351L51.3677 15.9015C51.7872 16.6304 51.997 16.9948 51.9827 17.294C51.9672 17.6173 51.7998 17.9135 51.5326 18.0902C51.2853 18.2537 50.8695 18.2537 50.0379 18.2537Z" fill="#FF3D3D"/>
<path d="M21.5754 -3.31616e-06L17.7568 -3.64999e-06C16.9554 -3.72005e-06 16.5547 -3.75508e-06 16.3146 0.156647C16.0551 0.325941 15.8913 0.609959 15.8737 0.921112C15.8575 1.20903 16.0557 1.56018 16.452 2.26249L24.278 16.1284C24.6895 16.8574 24.8952 17.2218 25.1551 17.3546C25.4359 17.4981 25.7683 17.495 26.0464 17.3464C26.3039 17.2088 26.5029 16.8406 26.901 16.1041L28.8415 12.5143C29.1205 11.9981 29.26 11.7401 29.3192 11.4694C29.3837 11.1748 29.3796 10.8691 29.3072 10.5764C29.2407 10.3074 29.0943 10.0533 28.8016 9.54493L24.1719 1.50707C23.8728 0.987693 23.7232 0.728005 23.5196 0.533919C23.298 0.322676 23.0301 0.167166 22.7376 0.0800425C22.4689 -3.23804e-06 22.1711 -3.26408e-06 21.5754 -3.31616e-06Z" fill="#FF3D3D"/>
<path d="M34.5638 5.96864e-05L30.1162 5.92976e-05C29.2869 5.92251e-05 28.8723 5.91888e-05 28.6253 0.154321C28.3584 0.321022 28.1909 0.600466 28.1749 0.905788C28.1601 1.18833 28.3685 1.53255 28.7851 2.221L31.0053 5.88919L31.0053 5.88919C31.4178 6.57086 31.6241 6.91169 31.8854 7.03926C32.1679 7.17713 32.5019 7.17736 32.7845 7.03987C33.046 6.91266 33.2528 6.57211 33.6664 5.89101L35.8938 2.22282C36.3121 1.53396 36.5212 1.18953 36.5067 0.906773C36.491 0.601221 36.3236 0.321444 36.0566 0.154526C35.8095 5.97953e-05 35.3943 5.9759e-05 34.5638 5.96864e-05Z" fill="#FF3D3D"/>
</svg>
