<svg width="1326" height="1084" viewBox="0 0 1326 1084" fill="none" xmlns="http://www.w3.org/2000/svg">
<path d="M433.766 1083.06C433.766 1083.06 469.854 610.212 982.173 706.462C1495.14 802.065 1638.2 491.354 1638.2 491.354M2 595.355C2 595.355 38.0879 122.504 550.407 218.754C1063.37 314.358 1206.43 3 1206.43 3L2 595.355ZM49.6876 649.616C49.6876 649.616 85.7755 176.766 598.095 273.016C1111.7 368.619 1254.77 57.2615 1254.77 57.2615L49.6876 649.616ZM98.0196 703.878C98.0196 703.878 134.108 231.028 646.427 327.277C1158.75 423.527 1302.45 111.523 1302.45 111.523L98.0196 703.878ZM145.707 758.139C145.707 758.139 181.795 285.289 694.115 381.539C1207.08 477.142 1350.14 166.43 1350.14 166.43L145.707 758.139ZM194.039 812.401C194.039 812.401 230.127 339.551 742.447 435.8C1254.77 532.05 1398.47 220.692 1398.47 220.692L194.039 812.401ZM241.727 866.662C241.727 866.662 277.815 393.812 790.134 490.062C1303.1 585.665 1446.16 274.953 1446.16 274.953L241.727 866.662ZM289.414 920.278C289.414 920.278 325.502 447.428 837.822 543.677C1350.79 639.281 1493.85 328.569 1493.85 328.569L289.414 920.278ZM337.746 974.539C337.746 974.539 373.834 501.689 886.154 597.939C1399.12 693.542 1542.18 382.831 1542.18 382.831L337.746 974.539ZM385.434 1028.8C385.434 1028.8 421.522 555.951 933.841 652.2C1446.81 747.804 1590.51 436.446 1590.51 436.446L385.434 1028.8Z" stroke="url(#paint0_linear)" stroke-width="2" stroke-miterlimit="10"/>
<defs>
<linearGradient id="paint0_linear" x1="820.1" y1="3" x2="820.1" y2="1083.06" gradientUnits="userSpaceOnUse">
<stop stop-color="white"/>
<stop offset="1" stop-color="#1D1C28"/>
</linearGradient>
</defs>
</svg>
