<?xml version="1.0" encoding="utf-8"?>
<!-- Generator: Adobe Illustrator 25.0.1, SVG Export Plug-In . SVG Version: 6.00 Build 0)  -->
<svg version="1.1" id="Layer_1" xmlns="http://www.w3.org/2000/svg" xmlns:xlink="http://www.w3.org/1999/xlink" x="0px" y="0px"
	 viewBox="0 0 3403 2868" style="enable-background:new 0 0 3403 2868;" xml:space="preserve">
<style type="text/css">
	.st0{fill:none;stroke:#595959;}
</style>
<path class="st0" d="M1194.1,1663.3c47.6,123.3,60.4,246.7,42.7,346.4s-66,175.7-140.6,204.4c-74.5,28.8-161.3,5-241.5-56.9
	c-80.1-61.9-153.5-161.8-201.1-285.2c-47.6-123.3-60.4-246.7-42.7-346.3c17.7-99.7,66-175.7,140.6-204.4
	c74.5-28.8,161.3-5,241.5,56.9C1073,1440.1,1146.4,1540,1194.1,1663.3z"/>
<path class="st0" d="M1183.7,1641.6c38.3,99.2,48.2,198.4,33.4,278.8c-14.8,80.3-54.4,141.7-115.2,165.1
	c-60.8,23.5-131.3,4.6-196.3-44.9c-65-49.5-124.3-129.7-162.6-228.9c-38.3-99.2-48.2-198.4-33.4-278.8
	c14.8-80.3,54.4-141.7,115.2-165.1c60.7-23.5,131.3-4.7,196.3,44.9C1086.1,1462.2,1145.4,1542.4,1183.7,1641.6z"/>
<path class="st0" d="M1183.2,1640.4c31.2,80.7,40.5,161,30.3,225.6c-10.1,64.6-39.6,113.4-86,131.3c-46.4,17.9-101.1,1.6-152-39.4
	c-50.9-41.1-98-106.8-129.1-187.4c-31.1-80.7-40.5-161-30.3-225.6c10.1-64.6,39.6-113.4,86-131.4c46.4-17.9,101.1-1.6,152,39.5
	C1105,1494,1152.1,1559.7,1183.2,1640.4z"/>
<path class="st0" d="M1182.6,1638.8c23.5,60.9,31.2,121.3,24.5,169.8c-6.7,48.4-27.6,84.7-61.1,97.7c-33.5,12.9-73.4,0.1-110.9-31.2
	c-37.5-31.4-72.4-81.2-96-142.2c-23.5-60.9-31.1-121.3-24.5-169.8c6.7-48.4,27.6-84.7,61.1-97.7c33.5-12.9,73.4-0.1,110.9,31.2
	C1124.2,1528.1,1159.1,1577.9,1182.6,1638.8z"/>
<path class="st0" d="M1183.9,1642.1c15.2,39.4,21.5,77.8,19.5,108.2c-2,30.4-12.4,52.5-30.3,59.4s-40.5-2.4-62.4-23.6
	c-21.9-21.2-43-53.9-58.2-93.3c-15.2-39.4-21.5-77.8-19.5-108.2c2-30.4,12.4-52.5,30.3-59.5c18-6.9,40.5,2.5,62.4,23.6
	C1147.6,1570,1168.7,1602.8,1183.9,1642.1z"/>
<path class="st0" d="M1229.6,1642.3c60,155.5,76.2,311,53.8,436.8c-22.4,125.7-83.3,221.6-177.3,257.9
	c-94,36.3-203.5,6.3-304.6-71.8c-101.1-78-193.6-204.1-253.7-359.6c-60.1-155.5-76.2-311.1-53.8-436.8
	c22.4-125.7,83.3-221.5,177.3-257.8c94-36.3,203.5-6.3,304.6,71.8C1077,1360.7,1169.6,1486.8,1229.6,1642.3z"/>
<path class="st0" d="M1273.1,1625.5c73.6,190.6,95.3,380.5,70.9,533.5c-24.4,152.9-94.9,268.8-205.5,311.5
	c-110.6,42.7-240.7,4.3-361.6-92.6c-120.8-96.8-232.4-252.1-306-442.7c-73.6-190.6-95.3-380.6-70.9-533.5
	c24.4-152.9,94.9-268.8,205.5-311.5c110.7-42.7,240.7-4.3,361.6,92.5C1087.9,1279.7,1199.5,1434.9,1273.1,1625.5z"/>
<path class="st0" d="M1338.8,1600.2c88.3,228.8,113.2,457.1,82,641.3c-31.2,184.2-118.4,324.3-254.1,376.7
	c-135.7,52.4-294.4,7.3-441.3-108.2c-146.9-115.5-281.9-301.3-370.3-530c-88.3-228.8-113.2-457.1-82-641.3
	c31.2-184.2,118.4-324.3,254.1-376.7c135.7-52.4,294.4-7.3,441.3,108.2C1115.4,1185.6,1250.4,1371.4,1338.8,1600.2z"/>
<path class="st0" d="M304.9,1212.8c84.6,94.9,234.7,184.4,417.2,238.6c135.6,40.2,266.8,54.4,375.6,45.3"/>
<path class="st0" d="M1151.4,1585.6C1041,1644,861,1687.5,656,1698.2c-143.5,7.5-276.5-2.2-383.2-24.7"/>
<path class="st0" d="M435.5,2154.6c79.4-97.7,217.3-214.2,386.8-319.6c130.2-81,258-142.3,365.8-179.1"/>
<path class="st0" d="M1200.2,1711.8c-92.4,43.3-208.4,167.3-301.4,332.9c-66.7,118.7-109,236.4-123.5,330.9"/>
<path class="st0" d="M1098.8,2213.1c-10.2-48.6-10.5-118.7,2.5-190.9c21.1-117.4,69.4-210.3,114.9-228.6"/>
<path class="st0" d="M1217.5,1800.8c-17.6,49.9-13.1,137.3,15.8,230.6c24.2,78.3,63.3,145.7,99.5,183.1"/>
<path class="st0" d="M1228.5,1373.9c-77.5,47.7-121.6,146.1-100.3,246.3c26.5,125.1,142.4,206.5,258.9,181.8c3.5-0.8,9.6-2.1,13-3"
	/>
<path class="st0" d="M1777,646c89.5-6.5,173.5,105.2,214.6,270.6c34.2,170.4,50.5,301.2-59.8,348c-71,30.1-637.8,233.1-637,233.1"/>
<path class="st0" d="M1362.4,1664.3l574.1-211.1"/>
<path class="st0" d="M1351.1,1633.3l617.9-228.4"/>
<path class="st0" d="M1338.2,1597.9l622.9-228.3"/>
<path class="st0" d="M1322.7,1560.8l624.1-231.6"/>
<path class="st0" d="M1410.5,1646.6c29.6-10.1,40.6-56.3,24.6-103.4c-16-47-51-77-80.5-67"/>
<path class="st0" d="M1500.3,1613.6c29.6-10.1,40.5-55.8,24.5-102.8c-16-47-48.8-77.8-78.3-67.7"/>
<path class="st0" d="M1589,1581c29.6-10.1,40.8-56.9,24.9-103.3c-15.8-46.5-50.2-76.3-79.7-66.2"/>
<path class="st0" d="M1678.2,1548c29.6-10.1,40.7-56,24.8-102.5c-15.8-46.5-50.8-76.2-80.4-66.1"/>
<path class="st0" d="M1756.7,1519.3c29.6-10.1,40.7-55.9,24.9-102.3c-15.8-46.4-50.3-76.5-79.9-66.4"/>
<path class="st0" d="M1817.5,1496.6c29.6-10.1,40.8-55.7,25.1-101.9c-15.7-46.2-50.9-76.3-80.4-66.3"/>
<path class="st0" d="M1880.8,1473.7c29.6-10.1,40.8-55.7,25.1-101.8s-50.9-76.7-80.5-66.7"/>
<path class="st0" d="M1986.9,1222.7c0,0,5.7-2.8,12.8-3.9c38.3-7.6,86.2,34.6,100.8,108.4c9.9,50.1,4.2,109.2-29.3,131.5"/>
<path class="st0" d="M2016.6,1128.2c10.5-7.4,21.2-12.3,36.8-14.6c71.1-8.5,135.6,42.5,169.4,147.6c33.7,105.1,8.1,212.7-60.2,232.9
	c-5.2,1.5-9.9,2-13.9,2.5"/>
<path class="st0" d="M2015.8,1073.3c14.5-13.5,26.4-21.4,47.1-28c93.5-30,203,50.9,244.6,180.8c41.6,129.8-0.4,259.4-93.9,289.3
	c-10.9,3.5-19.6,4.7-30.8,5.3"/>
<path class="st0" d="M2520.2,1150.8c36.1,104.9,41.1,209.4,19.9,293.6c-21.2,84.2-68.4,147.9-136.7,171.4
	c-68.3,23.5-144.8,2.4-213.3-50.9c-68.5-53.3-128.9-138.7-165.1-243.6c-36.1-104.9-41.1-209.5-19.9-293.6
	c21.2-84.2,68.4-147.9,136.7-171.4c68.3-23.5,144.8-2.4,213.3,50.9C2423.6,960.4,2484.1,1045.8,2520.2,1150.8z"/>
<path class="st0" d="M2614.6,1122.3c44.1,128,49.2,256,21.7,359.3c-27.5,103.3-87.4,181.9-173.3,211.5
	c-85.9,29.6-181.5,4.6-266.8-59.9s-160-168.4-204.1-296.4c-44.1-128-49.1-256-21.7-359.3c27.5-103.3,87.4-181.9,173.3-211.5
	c85.9-29.6,181.5-4.6,266.8,59.9C2495.8,890.3,2570.5,994.2,2614.6,1122.3z"/>
<path class="st0" d="M2720,1086.8c53.3,154.7,58.6,309.5,24.3,434.7c-34.4,125.2-108.4,220.8-214,257.1
	c-105.6,36.4-222.8,6.7-327-70.8c-104.2-77.5-195.2-202.8-248.5-357.5c-53.5-155.9-58.2-311-24.3-434.7
	c34.4-125.2,108.4-220.8,214-257.1c105.6-36.4,222.8-6.7,327,70.8C2575.6,806.8,2666.7,932.1,2720,1086.8z"/>
<path class="st0" d="M2927.9,1033.4c68.2,198,73.8,396.7,27.8,557.7c-46,161-143.7,284.4-282.1,332
	c-138.4,47.7-291.3,10.6-426.7-87.9c-135.4-98.5-253.3-258.4-321.5-456.5c-68.2-198-73.8-396.7-27.8-557.7
	c46-161,143.7-284.4,282.1-332c138.4-47.7,291.3-10.6,426.7,87.9C2741.8,675.4,2859.7,835.4,2927.9,1033.4z"/>
<path class="st0" d="M1799.5,1314.1c-153.3-487.5-6.2-973.7,339-1092.6c353.5-121.8,779.5,184.3,951.5,683.6
	c172,499.3,24.8,1002.8-328.7,1124.6c-318.7,109.7-700.3-135-897.6-548.7"/>
<path class="st0" d="M3142.6,1527.3c-80-173-251.1-255.5-414.1-272.8c-261.3-27.7-584.9,52.5-772.5,117"/>
<path class="st0" d="M2715.5,355.5c52.6,217.7-23.5,409.5-301.7,671c-9.2,8.7-18.7,17.1-28.5,25.1c-160.9,132.4-284.7,220-439,277.6
	"/>
<path class="st0" d="M2676.5,2050.5c30.1-151-185.6-592.3-438.7-642.7c-95.9-19.1-186.9-30.3-269.3-2.8"/>
<path class="st0" d="M2279,1957.9c63.6-61.1,74.3-268-39.8-386.7c-100.5-104.6-220.2-146.9-303.7-117.8"/>
<path class="st0" d="M1309.1,1527.7l627.4-236.2c95.3-36.3,192.9-159,215-397.6c26-281.4-148.1-497.9-239.5-512.9"/>
<path class="st0" d="M2244.2,1576.6c0,0,217.2-46.3,186.9-315.8c-28.8-255.8-205.3-320.6-286-314.8c0,0-86.3,4-134,82.6"/>
</svg>
