<svg width="15" height="15" viewBox="0 0 15 15" fill="none" xmlns="http://www.w3.org/2000/svg">
<path d="M14.5343 0.282752L10.6542 0.764686C10.5188 0.781092 10.4635 0.945155 10.5578 1.04154L11.6796 2.16332L8.53162 5.31127C8.50109 5.3421 8.48396 5.38374 8.48396 5.42714C8.48396 5.47053 8.50109 5.51217 8.53162 5.54301L9.45652 6.46791C9.5201 6.53148 9.62469 6.53148 9.68826 6.46791L12.8383 3.31791L13.96 4.43969C13.9817 4.46132 14.009 4.47641 14.0388 4.48324C14.0686 4.49007 14.0998 4.48836 14.1287 4.4783C14.1576 4.46824 14.1831 4.45023 14.2022 4.42636C14.2213 4.40248 14.2334 4.3737 14.2369 4.3433L14.7168 0.465272C14.7202 0.440506 14.7178 0.41529 14.7098 0.391597C14.7018 0.367905 14.6885 0.346378 14.6708 0.328702C14.6531 0.311026 14.6316 0.29768 14.6079 0.289708C14.5842 0.281737 14.559 0.279356 14.5343 0.282752ZM5.54363 8.53099C5.51279 8.50046 5.47116 8.48333 5.42776 8.48333C5.38437 8.48333 5.34273 8.50046 5.31189 8.53099L2.16394 11.681L1.04217 10.5592C1.02052 10.5376 0.993221 10.5225 0.963393 10.5157C0.933565 10.5088 0.902416 10.5105 0.873517 10.5206C0.844618 10.5307 0.819139 10.5487 0.800001 10.5725C0.780863 10.5964 0.768839 10.6252 0.76531 10.6556L0.283376 14.5336C0.271071 14.6403 0.359255 14.7285 0.465896 14.7162L4.34597 14.2342C4.48133 14.2178 4.5367 14.0538 4.44236 13.9574L3.32058 12.8356L6.47058 9.68558C6.53416 9.62201 6.53416 9.51742 6.47058 9.45385L5.54363 8.53099Z" fill="#595959"/>
</svg>
