<svg id="nav__shyft-logo" width="100px" height="40px" viewBox="0 0 115 50" version="1.1" xmlns="http://www.w3.org/2000/svg" xmlns:xlink="http://www.w3.org/1999/xlink">
<g stroke="none" stroke-width="1" fill-rule="evenodd">
<path id="symbol" d="M112.421316,32.4866818 C112.421316,33.3118902 112.721381,33.5369688 113.771548,33.6119551 L114.596876,33.6119551 L114.596876,37.5881443 L110.808273,37.5881443 C108.48262,37.5130382 107.619918,36.5753504 107.657292,34.2871909 L107.657292,24.1289463 L105.669317,24.1289463 L105.669317,20.0839997 L107.657292,20.0839997 L107.657292,15.572006 L112.421316,15.572006 L112.421316,20.0839997 L114.596876,20.0839997 L114.596876,24.1289463 L112.421316,24.1289463 L112.421316,32.4866818 Z M101.085703,37.5881323 L96.3217985,37.5881323 L96.3217985,24.1292937 L94.4088099,24.1292937 L94.4088099,20.0839877 L96.3217985,20.0839877 L96.3217985,19.1645074 C96.3217985,14.5132022 98.609958,12.3375221 103.373862,12.4876144 L103.373862,16.8763479 C101.723326,17.0639334 101.085703,17.7015563 101.085703,19.1645074 L101.085703,20.0839877 L103.373862,20.0839877 L103.373862,24.1292937 L101.085703,24.1292937 L101.085703,37.5881323 Z M87.3602198,20.0839997 L92.1241242,20.0839997 L92.1241242,29.2356794 L92.1241242,30.7257022 L92.1241242,39.2207129 L92.1241242,40.3158 C92.1241242,44.7552032 90.0379246,46.9377111 85.70585,46.9970053 L81.6585077,47 L81.6585077,42.6038397 L85.0719405,42.6038397 L85.0719405,42.6039595 C86.7225969,42.4164938 87.3602198,41.7787511 87.3602198,40.3158 L87.3602198,39.2207129 L87.3602198,37.9321708 C85.9807598,37.9321708 85.5569556,37.9423526 84.5469168,37.9423526 C82.1462779,37.9423526 80.0830772,37.2671168 78.7327253,36.0292443 C77.4948528,34.903971 76.894723,33.2534344 76.894723,30.965275 L76.894723,20.0839997 L81.6585077,20.0839997 L81.6585077,30.4256373 C81.6585077,32.3762388 82.8212741,33.619861 84.5469168,33.619861 C86.309813,33.619861 86.6745625,33.6186631 87.3602198,33.6186631 L87.3602198,29.2356794 L87.3602198,20.0839997 Z M64.1256383,12.5895167 L64.1256383,13.6846038 L64.1256383,20.0799988 C65.5050983,20.0799988 65.9289026,20.0699368 66.9389413,20.0699368 C69.3395802,20.0699368 71.4027809,20.7450528 72.7531328,21.9829253 C73.9910053,23.1083184 74.5911351,24.7587352 74.5911351,27.0468947 L74.5911351,37.6127724 L69.8273504,37.6127724 L69.8273504,27.5865323 C69.8273504,25.6360506 68.664584,24.3923086 66.9389413,24.3923086 C65.1760451,24.3923086 64.8112956,24.3936263 64.1256383,24.3936263 L64.1256383,37.6127724 L59.3617339,37.6127724 L59.3617339,14.0000014 L59.3617339,12.5895167 L64.1256383,12.5895167 Z M44.9891886,30.1926767 L44.9891886,30.5302348 C44.9891886,32.2182645 46.4521397,33.456137 48.4026214,33.456137 C50.2781168,33.456137 51.7035748,32.2932508 51.7035748,30.7928065 C51.7035748,30.0050913 51.3285236,29.2923623 50.6909007,28.8048317 C50.0530382,28.3170616 49.6030008,28.1295959 47.6523993,27.4168669 C42.1758856,25.4662654 40.2252842,23.4031845 40.2252842,19.5770877 C40.2252842,15.0383816 43.5638505,12 48.4777275,12 C53.3541114,12 56.5049724,14.8507961 56.9176365,19.6520739 L51.7410679,19.6520739 C51.5536022,17.5514999 50.5031954,16.5387061 48.4777275,16.5387061 C46.6396054,16.5387061 45.4017329,17.5891129 45.4017329,19.1645434 C45.4017329,20.1773372 45.9269962,20.9650525 46.9396703,21.5276891 C47.6149062,21.9027403 48.0275703,22.0903258 49.8655725,22.7655616 C52.6037695,23.7783555 53.9917343,24.4909647 55.0795144,25.5412517 C56.3923732,26.7791242 57.067609,28.4671539 57.067609,30.3801424 C57.067609,34.9565812 53.6165633,37.994843 48.4402343,37.994843 C43.1886795,37.994843 39.9627124,34.9940743 40.0003254,30.1926767 L44.9891886,30.1926767 Z" fill="#373241"></path>
<path id="word-mark" d="M30.4303909,22.9279279 C30.7454985,23.2882883 30.9705753,23.7387387 30.9705753,24.2342342 L30.9705753,34.5045045 C30.9705753,43.0630631 24.0382082,50 15.4852877,50 C7.38252086,50 0.585199824,43.6486486 0.0450153711,35.5405405 C-0.0450153711,34.5495495 0.720245938,33.6486486 1.7105841,33.6036036 C2.70092227,33.5135135 3.60122969,34.2792793 3.64624506,35.2702703 C4.0513834,41.4864865 9.22815108,46.3513514 15.530303,46.4414414 C22.1025472,46.4414414 27.414361,41.0810811 27.414361,34.5495495 L27.414361,25.045045 L21.2472552,18.8738739 C21.0221783,18.6936937 20.7971014,18.4234234 20.7070707,18.1531532 C20.6620553,18.0630631 20.61704,17.972973 20.61704,17.8828829 C20.61704,17.8378378 20.61704,17.8378378 20.61704,17.8378378 C20.5720246,17.6576577 20.5720246,17.4774775 20.5720246,17.2972973 L20.5720246,15.9459459 C20.5720246,13.1531532 18.2762407,10.8558559 15.4852877,10.8558559 C12.6943347,10.8558559 10.3985507,13.1531532 10.3985507,15.9459459 L10.3985507,22.8378378 L16.6556873,29.0990991 C17.0158103,29.4144144 17.1958718,29.8648649 17.1958718,30.3603604 L17.1958718,34.5045045 C17.1958718,35.4954955 16.3855951,36.3063063 15.3952569,36.3063063 C14.4049188,36.3063063 13.5946421,35.4954955 13.5946421,34.5045045 L13.5946421,31.0810811 L7.33750549,24.8648649 C6.97738252,24.5495495 6.79732104,24.0990991 6.79732104,23.6036036 L6.79732104,15.9459459 C6.79732104,11.1261261 10.668643,7.25225225 15.4852877,7.25225225 C20.3019324,7.25225225 24.1732543,11.1711712 24.1732543,15.9459459 L24.1732543,16.6666667 L30.4303909,22.9279279 Z M6.79732104,33.0630631 L0.540184453,26.8018018 C0.180061484,26.4864865 0,26.036036 0,25.5405405 L0,15.4954955 C0,6.93693694 6.93236715,0 15.4852877,0 C23.4530083,0 30.0702679,5.99099099 30.8355292,13.9189189 L30.8805446,14.1891892 C30.9255599,15.1801802 30.205314,16.036036 29.2149758,16.1261261 C28.2246377,16.1711712 27.3693456,15.4504505 27.2793149,14.4594595 L27.2793149,14.2792793 C26.6941151,8.28828829 21.5173474,3.6036036 15.4852877,3.6036036 C8.91304348,3.6036036 3.60122969,8.91891892 3.60122969,15.4954955 L3.60122969,24.7747748 L9.85836627,31.036036 C9.85836627,31.036036 9.90338164,31.0810811 9.90338164,31.0810811 L9.94839701,31.0810811 C10.3985507,31.5765766 10.5335968,32.2072072 10.3985507,32.7927928 L10.3985507,34.4594595 C10.3985507,37.2522523 12.6943347,39.5495495 15.4852877,39.5495495 C18.2762407,39.5495495 20.5720246,37.2522523 20.5720246,34.4594595 L20.5720246,27.7027027 L14.1798419,21.3513514 C13.8197189,21.036036 13.6396574,20.5855856 13.6396574,20.0900901 L13.6396574,15.9009009 C13.6396574,14.9099099 14.4499341,14.0990991 15.4402723,14.0990991 C16.4306105,14.0990991 17.2408871,14.9099099 17.2408871,15.9009009 L17.2408871,19.3243243 L23.6330698,25.7207207 C23.9931928,26.036036 24.1732543,26.4864865 24.1732543,26.981982 L24.1732543,34.5045045 C24.1732543,39.3243243 20.3019324,43.1981982 15.4852877,43.1981982 C10.668643,43.1981982 6.79732104,39.2792793 6.79732104,34.5045045 L6.79732104,33.0630631 Z" fill="#80225F" fill-rule="nonzero"></path>
</g>
</svg>