<svg width="543" height="583" viewBox="0 0 543 583" fill="none" xmlns="http://www.w3.org/2000/svg">
<g clip-path="url(#clip0)">
<path d="M542.56 209.59C542.56 161.18 503.58 144.6 455.5 172.55L252.35 290.62V407.48V465.91V582.77L455.49 464.7C503.57 436.75 542.55 374.86 542.55 326.45C542.55 304 534.15 288.41 520.36 280.91C534.16 257.39 542.56 232.04 542.56 209.59ZM310.39 315.32L455.49 230.98C471.52 221.66 484.51 227.19 484.51 243.33C484.51 259.47 471.52 280.1 455.49 289.41L310.39 373.75V315.32ZM484.52 360.19C484.52 376.33 471.53 396.96 455.5 406.27L310.4 490.61V432.18L455.5 347.84C471.52 338.52 484.52 344.05 484.52 360.19Z" fill="url(#paint0_linear)"/>
<path d="M0 145.617V437.08L50.39 466.17V349.62L201.56 436.9V553.46L252.35 582.78L252.37 291.25L0 145.617ZM201.56 378.62L50.39 291.34V233.06L201.56 320.34V378.62Z" fill="url(#paint1_linear)"/>
<path d="M524.09 166.35C524.09 166.35 513.37 157.74 496.83 150.16H496.82C478.54 141.78 452 132.5 427.25 141.77L260.75 237.85L201.87 203.87L353.28 116.5L302.81 87.38L151.4 174.75L92.52 140.77L294.4 24.27L252.35 0L0 145.62L252.35 291.24L472.5 164.5C481.88 160.91 503.58 154.68 524.09 166.35Z" fill="url(#paint2_linear)"/>
</g>
<defs>
<linearGradient id="paint0_linear" x1="461.946" y1="446.936" x2="219.347" y2="448.795" gradientUnits="userSpaceOnUse">
<stop stop-color="#FF7575"/>
<stop offset="1" stop-color="#ED1212"/>
</linearGradient>
<linearGradient id="paint1_linear" x1="182.267" y1="442.684" x2="-28.7028" y2="444.047" gradientUnits="userSpaceOnUse">
<stop stop-color="#FF7575"/>
<stop offset="1" stop-color="#ED1212"/>
</linearGradient>
<linearGradient id="paint2_linear" x1="378.509" y1="197.893" x2="-59.4471" y2="206.71" gradientUnits="userSpaceOnUse">
<stop stop-color="#FF7575"/>
<stop offset="1" stop-color="#ED1212"/>
</linearGradient>
<clipPath id="clip0">
<rect width="542.56" height="582.78" fill="white"/>
</clipPath>
</defs>
</svg>
