<svg width="54" height="57" viewBox="0 0 54 57" fill="none" xmlns="http://www.w3.org/2000/svg">
<path d="M45.2503 11.8689L25.5051 23.2634L19.7462 19.9399L34.5551 11.3945L29.6188 8.54538L14.8099 17.0917L9.05104 13.7683L28.7963 2.37377L24.6825 0L0.000976562 14.2426L24.6845 28.4862L49.3641 14.2426L45.2503 11.8689Z" fill="url(#paint0_linear)"/>
<path d="M53.0662 20.4993C53.0662 15.7645 49.4659 14.1644 44.7633 16.8981L24.6836 28.4862L24.6816 39.8553V45.5701V56.9998L44.5501 45.4508C49.2527 42.7171 53.0652 36.6638 53.0652 31.929C53.0652 29.7332 52.2436 28.2084 50.8948 27.4749C52.2446 25.1745 53.0662 22.6951 53.0662 20.4993ZM30.3583 30.8404L44.5501 22.5914C46.118 21.6798 47.3885 22.2207 47.3885 23.7993C47.3885 25.3779 46.118 27.3957 44.5501 28.3062L30.3583 36.5553V30.8404ZM47.3894 35.229C47.3894 36.8076 46.1189 38.8254 44.5511 39.7359L30.3593 47.985V42.2701L44.5511 34.0211C46.118 33.1095 47.3894 33.6504 47.3894 35.229Z" fill="url(#paint1_linear)"/>
<path d="M0 14.2424V42.7492L4.92849 45.5944V34.195L19.7139 42.7316V54.132L24.6816 56.9997L24.6835 28.486L0 14.2424ZM19.7139 37.0314L4.92849 28.4948V22.7947L19.7139 31.3312V37.0314Z" fill="url(#paint2_linear)"/>
<defs>
<linearGradient id="paint0_linear" x1="35.6521" y1="19.356" x2="-5.59945" y2="20.1557" gradientUnits="userSpaceOnUse">
<stop stop-color="#FF595A"/>
<stop offset="1" stop-color="#ED1212"/>
</linearGradient>
<linearGradient id="paint1_linear" x1="45.1816" y1="43.7192" x2="21.4538" y2="43.901" gradientUnits="userSpaceOnUse">
<stop stop-color="#FF595A"/>
<stop offset="1" stop-color="#ED1212"/>
</linearGradient>
<linearGradient id="paint2_linear" x1="17.827" y1="43.2954" x2="-2.80733" y2="43.4286" gradientUnits="userSpaceOnUse">
<stop stop-color="#FF595A"/>
<stop offset="1" stop-color="#ED1212"/>
</linearGradient>
</defs>
</svg>
