<svg width="1030" height="65" viewBox="0 0 1030 65" fill="none" xmlns="http://www.w3.org/2000/svg">
<path d="M30.808 33.568V34.068H31.4804L31.2868 33.4241L30.808 33.568ZM16.552 33.568L16.0732 33.4241L15.8796 34.068H16.552V33.568ZM23.608 10.096V9.596H23.2362L23.1292 9.95205L23.608 10.096ZM23.752 10.096L24.2308 9.95205L24.1238 9.596H23.752V10.096ZM0.928 52L0.453792 51.8415L0.233671 52.5H0.928V52ZM11.008 52V52.5H11.3811L11.4873 52.1424L11.008 52ZM13.96 42.064V41.564H13.587L13.4807 41.9216L13.96 42.064ZM33.4 42.064L33.8793 41.9216L33.7731 41.564H33.4V42.064ZM36.352 52L35.8727 52.1424L35.979 52.5H36.352V52ZM46.432 52V52.5H47.1263L46.9062 51.8415L46.432 52ZM29.296 0.736L29.7702 0.577486L29.6561 0.236H29.296V0.736ZM18.064 0.736V0.236H17.7039L17.5898 0.577486L18.064 0.736ZM30.808 33.068H16.552V34.068H30.808V33.068ZM17.0308 33.7119L24.0868 10.2399L23.1292 9.95205L16.0732 33.4241L17.0308 33.7119ZM23.608 10.596H23.752V9.596H23.608V10.596ZM23.2732 10.2399L30.3292 33.7119L31.2868 33.4241L24.2308 9.95205L23.2732 10.2399ZM0.928 52.5H11.008V51.5H0.928V52.5ZM11.4873 52.1424L14.4393 42.2064L13.4807 41.9216L10.5287 51.8576L11.4873 52.1424ZM13.96 42.564H33.4V41.564H13.96V42.564ZM32.9207 42.2064L35.8727 52.1424L36.8313 51.8576L33.8793 41.9216L32.9207 42.2064ZM36.352 52.5H46.432V51.5H36.352V52.5ZM46.9062 51.8415L29.7702 0.577486L28.8218 0.894512L45.9578 52.1585L46.9062 51.8415ZM29.296 0.236H18.064V1.236H29.296V0.236ZM17.5898 0.577486L0.453792 51.8415L1.40221 52.1585L18.5382 0.894512L17.5898 0.577486ZM58.4476 52L57.9728 52.1567L58.0861 52.5H58.4476V52ZM67.6636 52V52.5H68.0251L68.1384 52.1567L67.6636 52ZM79.6876 15.568L80.1624 15.7247L80.3791 15.068H79.6876V15.568ZM70.3996 15.568V15.068H70.0234L69.9192 15.4294L70.3996 15.568ZM63.1276 40.768V41.268H63.5037L63.608 40.9066L63.1276 40.768ZM62.9836 40.768L62.5032 40.9066L62.6074 41.268H62.9836V40.768ZM55.7116 15.568L56.192 15.4294L56.0877 15.068H55.7116V15.568ZM46.4236 15.568V15.068H45.732L45.9488 15.7247L46.4236 15.568ZM58.4476 52.5H67.6636V51.5H58.4476V52.5ZM68.1384 52.1567L80.1624 15.7247L79.2128 15.4113L67.1888 51.8433L68.1384 52.1567ZM79.6876 15.068H70.3996V16.068H79.6876V15.068ZM69.9192 15.4294L62.6472 40.6294L63.608 40.9066L70.88 15.7066L69.9192 15.4294ZM63.1276 40.268H62.9836V41.268H63.1276V40.268ZM63.464 40.6294L56.192 15.4294L55.2312 15.7066L62.5032 40.9066L63.464 40.6294ZM55.7116 15.068H46.4236V16.068H55.7116V15.068ZM45.9488 15.7247L57.9728 52.1567L58.9224 51.8433L46.8984 15.4113L45.9488 15.7247ZM83.278 26.584H82.778V27.0639L83.2575 27.0836L83.278 26.584ZM92.062 26.944L92.0415 27.4436L92.562 27.4649V26.944H92.062ZM105.742 27.16L105.909 27.6312L106.242 27.5131V27.16H105.742ZM96.238 29.32L96.3342 29.8107L96.3382 29.8099L96.238 29.32ZM92.566 30.04L92.4698 29.5493L92.4679 29.5497L92.566 30.04ZM105.742 48.688H106.242V47.6408L105.428 48.2992L105.742 48.688ZM106.606 52L106.19 52.2774L106.338 52.5H106.606V52ZM115.894 52V52.5H116.805L116.316 51.7316L115.894 52ZM96.742 36.088L96.838 36.5787L96.8443 36.5774L96.742 36.088ZM101.566 35.08L101.477 34.5879L101.464 34.5906L101.566 35.08ZM105.742 33.784H106.242V32.975L105.518 33.3368L105.742 33.784ZM115.026 26.656C115.026 24.0013 114.523 21.8733 113.618 20.1789C112.711 18.4811 111.414 17.2461 109.87 16.3585C106.805 14.5964 102.766 14.204 98.83 14.204V15.204C102.742 15.204 106.551 15.6036 109.372 17.2255C110.771 18.0299 111.926 19.1349 112.736 20.6501C113.548 22.1687 114.026 24.1267 114.026 26.656H115.026ZM98.83 14.204C94.7764 14.204 90.7809 15.0422 87.7824 17.0132C84.758 19.0012 82.778 22.1254 82.778 26.584H83.778C83.778 22.4746 85.578 19.6588 88.3316 17.8488C91.1111 16.0218 94.8916 15.204 98.83 15.204V14.204ZM83.2575 27.0836L92.0415 27.4436L92.0825 26.4444L83.2985 26.0844L83.2575 27.0836ZM92.562 26.944C92.562 25.0183 92.9666 23.8387 93.8481 23.1079C94.758 22.3536 96.2942 21.972 98.83 21.972V20.972C96.2539 20.972 94.406 21.3464 93.2099 22.3381C91.9854 23.3533 91.562 24.9097 91.562 26.944H92.562ZM98.83 21.972C100.712 21.972 102.335 22.2237 103.472 22.862C104.033 23.1765 104.468 23.5808 104.767 24.0929C105.065 24.6052 105.242 25.2533 105.242 26.08H106.242C106.242 25.1067 106.032 24.2788 105.631 23.5896C105.229 22.9002 104.652 22.3775 103.962 21.99C102.597 21.2243 100.764 20.972 98.83 20.972V21.972ZM105.242 26.08V27.16H106.242V26.08H105.242ZM105.575 26.6888C103.386 27.4653 99.3427 28.1746 96.1378 28.8301L96.3382 29.8099C99.4693 29.1694 103.634 28.4387 105.909 27.6312L105.575 26.6888ZM96.1418 28.8293L92.4698 29.5493L92.6622 30.5307L96.3342 29.8107L96.1418 28.8293ZM92.4679 29.5497C89.7175 30.0998 86.8542 31.1882 84.6695 33.0822C82.4688 34.9901 80.978 37.6994 80.978 41.416H81.978C81.978 38.0046 83.3312 35.5659 85.3245 33.8378C87.3338 32.0958 90.0145 31.0602 92.6641 30.5303L92.4679 29.5497ZM80.978 41.416C80.978 45.0825 82.4039 48.0822 84.7462 50.16C87.0825 52.2325 90.302 53.364 93.862 53.364V52.364C90.51 52.364 87.5375 51.2995 85.4098 49.412C83.2881 47.5298 81.978 44.8055 81.978 41.416H80.978ZM93.862 53.364C98.513 53.364 102.584 51.8844 106.056 49.0768L105.428 48.2992C102.132 50.9636 98.283 52.364 93.862 52.364V53.364ZM105.242 48.688C105.242 49.2001 105.32 49.8512 105.472 50.4871C105.622 51.1179 105.856 51.776 106.19 52.2774L107.022 51.7226C106.78 51.36 106.582 50.8301 106.444 50.2549C106.308 49.6848 106.242 49.1119 106.242 48.688H105.242ZM106.606 52.5H115.894V51.5H106.606V52.5ZM116.316 51.7316C115.863 51.0206 115.026 49.5299 115.026 45.88H114.026C114.026 49.7181 114.917 51.3954 115.472 52.2684L116.316 51.7316ZM115.026 45.88V26.656H114.026V45.88H115.026ZM105.242 38.968C105.242 41.085 104.066 42.6158 102.345 43.6415C100.611 44.6748 98.3646 45.164 96.382 45.164V46.164C98.5034 46.164 100.937 45.6452 102.857 44.5005C104.79 43.3482 106.242 41.531 106.242 38.968H105.242ZM96.382 45.164C93.3621 45.164 91.194 43.4752 91.194 41.128H90.194C90.194 44.2528 93.0659 46.164 96.382 46.164V45.164ZM91.194 41.128C91.194 39.5648 91.7967 38.6219 92.7572 37.9684C93.762 37.2848 95.1814 36.9028 96.838 36.5787L96.646 35.5973C94.9906 35.9212 93.386 36.3312 92.1948 37.1416C90.9593 37.9821 90.194 39.2352 90.194 41.128H91.194ZM96.8443 36.5774L101.668 35.5694L101.464 34.5906L96.6397 35.5986L96.8443 36.5774ZM101.655 35.5719C103.269 35.2785 104.758 34.8348 105.966 34.2312L105.518 33.3368C104.422 33.8852 103.031 34.3055 101.477 34.5881L101.655 35.5719ZM105.242 33.784V38.968H106.242V33.784H105.242ZM122.742 52H122.242V52.5H122.742V52ZM131.526 52V52.5H132.026V52H131.526ZM131.526 0.736H132.026V0.236H131.526V0.736ZM122.742 0.736V0.236H122.242V0.736H122.742ZM122.742 52.5H131.526V51.5H122.742V52.5ZM132.026 52V0.736H131.026V52H132.026ZM131.526 0.236H122.742V1.236H131.526V0.236ZM122.242 0.736V52H123.242V0.736H122.242ZM139.387 26.584H138.887V27.0639L139.367 27.0836L139.387 26.584ZM148.171 26.944L148.151 27.4436L148.671 27.4649V26.944H148.171ZM161.851 27.16L162.019 27.6312L162.351 27.5131V27.16H161.851ZM152.347 29.32L152.444 29.8107L152.448 29.8099L152.347 29.32ZM148.675 30.04L148.579 29.5493L148.577 29.5497L148.675 30.04ZM161.851 48.688H162.351V47.6408L161.537 48.2992L161.851 48.688ZM162.715 52L162.299 52.2774L162.448 52.5H162.715V52ZM172.003 52V52.5H172.914L172.425 51.7316L172.003 52ZM152.851 36.088L152.947 36.5787L152.954 36.5774L152.851 36.088ZM157.675 35.08L157.586 34.5879L157.573 34.5906L157.675 35.08ZM161.851 33.784H162.351V32.975L161.628 33.3368L161.851 33.784ZM171.135 26.656C171.135 24.0013 170.633 21.8733 169.727 20.1789C168.82 18.4811 167.523 17.2461 165.98 16.3585C162.915 14.5964 158.875 14.204 154.939 14.204V15.204C158.852 15.204 162.66 15.6036 165.481 17.2255C166.88 18.0299 168.036 19.1349 168.846 20.6501C169.657 22.1687 170.135 24.1267 170.135 26.656H171.135ZM154.939 14.204C150.886 14.204 146.89 15.0422 143.892 17.0132C140.867 19.0012 138.887 22.1254 138.887 26.584H139.887C139.887 22.4746 141.687 19.6588 144.441 17.8488C147.22 16.0218 151.001 15.204 154.939 15.204V14.204ZM139.367 27.0836L148.151 27.4436L148.192 26.4444L139.408 26.0844L139.367 27.0836ZM148.671 26.944C148.671 25.0183 149.076 23.8387 149.957 23.1079C150.867 22.3536 152.404 21.972 154.939 21.972V20.972C152.363 20.972 150.515 21.3464 149.319 22.3381C148.095 23.3533 147.671 24.9097 147.671 26.944H148.671ZM154.939 21.972C156.821 21.972 158.444 22.2237 159.582 22.862C160.142 23.1765 160.578 23.5808 160.876 24.0929C161.174 24.6052 161.351 25.2533 161.351 26.08H162.351C162.351 25.1067 162.141 24.2788 161.74 23.5896C161.339 22.9002 160.762 22.3775 160.071 21.99C158.707 21.2243 156.874 20.972 154.939 20.972V21.972ZM161.351 26.08V27.16H162.351V26.08H161.351ZM161.684 26.6888C159.496 27.4653 155.452 28.1746 152.247 28.8301L152.448 29.8099C155.579 29.1694 159.743 28.4387 162.019 27.6312L161.684 26.6888ZM152.251 28.8293L148.579 29.5493L148.772 30.5307L152.444 29.8107L152.251 28.8293ZM148.577 29.5497C145.827 30.0998 142.964 31.1882 140.779 33.0822C138.578 34.9901 137.087 37.6994 137.087 41.416H138.087C138.087 38.0046 139.441 35.5659 141.434 33.8378C143.443 32.0958 146.124 31.0602 148.773 30.5303L148.577 29.5497ZM137.087 41.416C137.087 45.0825 138.513 48.0822 140.856 50.16C143.192 52.2325 146.411 53.364 149.971 53.364V52.364C146.619 52.364 143.647 51.2995 141.519 49.412C139.397 47.5298 138.087 44.8055 138.087 41.416H137.087ZM149.971 53.364C154.622 53.364 158.693 51.8844 162.166 49.0768L161.537 48.2992C158.242 50.9636 154.392 52.364 149.971 52.364V53.364ZM161.351 48.688C161.351 49.2001 161.429 49.8512 161.581 50.4871C161.732 51.1179 161.965 51.776 162.299 52.2774L163.131 51.7226C162.89 51.36 162.691 50.8301 162.554 50.2549C162.418 49.6848 162.351 49.1119 162.351 48.688H161.351ZM162.715 52.5H172.003V51.5H162.715V52.5ZM172.425 51.7316C171.973 51.0206 171.135 49.5299 171.135 45.88H170.135C170.135 49.7181 171.026 51.3954 171.582 52.2684L172.425 51.7316ZM171.135 45.88V26.656H170.135V45.88H171.135ZM161.351 38.968C161.351 41.085 160.175 42.6158 158.454 43.6415C156.721 44.6748 154.474 45.164 152.491 45.164V46.164C154.613 46.164 157.046 45.6452 158.966 44.5005C160.9 43.3482 162.351 41.531 162.351 38.968H161.351ZM152.491 45.164C149.471 45.164 147.303 43.4752 147.303 41.128H146.303C146.303 44.2528 149.175 46.164 152.491 46.164V45.164ZM147.303 41.128C147.303 39.5648 147.906 38.6219 148.867 37.9684C149.871 37.2848 151.291 36.9028 152.947 36.5787L152.755 35.5973C151.1 35.9212 149.495 36.3312 148.304 37.1416C147.069 37.9821 146.303 39.2352 146.303 41.128H147.303ZM152.954 36.5774L157.778 35.5694L157.573 34.5906L152.749 35.5986L152.954 36.5774ZM157.765 35.5719C159.379 35.2785 160.868 34.8348 162.075 34.2312L161.628 33.3368C160.531 33.8852 159.14 34.3055 157.586 34.5881L157.765 35.5719ZM161.351 33.784V38.968H162.351V33.784H161.351ZM178.851 52H178.351V52.5H178.851V52ZM187.635 52V52.5H188.135V52H187.635ZM201.459 52H200.959V52.5H201.459V52ZM210.243 52V52.5H210.743V52H210.243ZM187.779 19.168V19.668H188.016L188.166 19.4846L187.779 19.168ZM187.635 19.168H187.135V19.668H187.635V19.168ZM187.635 15.568H188.135V15.068H187.635V15.568ZM178.851 15.568V15.068H178.351V15.568H178.851ZM178.851 52.5H187.635V51.5H178.851V52.5ZM188.135 52V32.776H187.135V52H188.135ZM188.135 32.776C188.135 29.5128 188.994 27.2525 190.301 25.813C191.603 24.3777 193.403 23.7 195.411 23.7V22.7C193.171 22.7 191.083 23.4623 189.56 25.141C188.04 26.8155 187.135 29.3432 187.135 32.776H188.135ZM195.411 23.7C197.546 23.7 198.903 24.4546 199.74 25.5396C200.595 26.6459 200.959 28.1613 200.959 29.752H201.959C201.959 28.0307 201.568 26.2701 200.532 24.9284C199.48 23.5654 197.812 22.7 195.411 22.7V23.7ZM200.959 29.752V52H201.959V29.752H200.959ZM201.459 52.5H210.243V51.5H201.459V52.5ZM210.743 52V27.088H209.743V52H210.743ZM210.743 27.088C210.743 23.0183 209.753 19.7738 207.577 17.5493C205.398 15.3228 202.114 14.204 197.715 14.204V15.204C201.956 15.204 204.937 16.2812 206.862 18.2487C208.789 20.2182 209.743 23.1657 209.743 27.088H210.743ZM197.715 14.204C194.073 14.204 190.1 15.5424 187.392 18.8514L188.166 19.4846C190.643 16.4576 194.302 15.204 197.715 15.204V14.204ZM187.779 18.668H187.635V19.668H187.779V18.668ZM188.135 19.168V15.568H187.135V19.168H188.135ZM187.635 15.068H178.851V16.068H187.635V15.068ZM178.351 15.568V52H179.351V15.568H178.351ZM250.611 25.072L250.819 25.5266L251.255 25.327L251.074 24.8832L250.611 25.072ZM251.043 41.704L251.497 41.9128L251.695 41.4831L251.277 41.262L251.043 41.704ZM243.555 37.744L243.789 37.302L243.303 37.045L243.093 37.5531L243.555 37.744ZM242.907 28.6L242.431 28.7524L242.603 29.2893L243.115 29.0546L242.907 28.6ZM251.074 24.8832C249.936 22.0935 248.253 19.4182 245.697 17.4405C243.134 15.4577 239.73 14.204 235.203 14.204V15.204C239.532 15.204 242.716 16.3983 245.085 18.2315C247.461 20.0698 249.054 22.5785 250.148 25.2608L251.074 24.8832ZM235.203 14.204C229.177 14.204 224.377 16.3019 221.086 19.8257C217.799 23.3448 216.055 28.2442 216.055 33.784H217.055C217.055 28.4518 218.731 23.8112 221.816 20.5083C224.897 17.2101 229.421 15.204 235.203 15.204V14.204ZM216.055 33.784C216.055 39.3236 217.798 44.2201 221 47.7376C224.207 51.2603 228.845 53.364 234.555 53.364V52.364C229.105 52.364 224.743 50.3637 221.74 47.0644C218.732 43.7599 217.055 39.1164 217.055 33.784H216.055ZM234.555 53.364C239.595 53.364 243.22 51.8704 245.898 49.6682C248.565 47.4751 250.259 44.6073 251.497 41.9128L250.589 41.4953C249.379 44.1287 247.762 46.8409 245.262 48.8958C242.775 50.9417 239.379 52.364 234.555 52.364V53.364ZM251.277 41.262L243.789 37.302L243.321 38.186L250.809 42.146L251.277 41.262ZM243.093 37.5531C242.417 39.1898 241.548 40.8778 240.236 42.1558C238.94 43.4187 237.191 44.3 234.699 44.3V45.3C237.463 45.3 239.458 44.3093 240.934 42.8722C242.394 41.4502 243.325 39.6102 244.017 37.9349L243.093 37.5531ZM234.699 44.3C231.806 44.3 229.723 43.0506 228.346 41.1334C226.956 39.1976 226.271 36.5546 226.271 33.784H225.271C225.271 36.7014 225.99 39.5664 227.534 41.7166C229.091 43.8854 231.472 45.3 234.699 45.3V44.3ZM226.271 33.784C226.271 31.0258 227.04 28.3861 228.534 26.4483C230.017 24.5244 232.231 23.268 235.203 23.268V22.268C231.911 22.268 229.409 23.6756 227.742 25.8377C226.086 27.9859 225.271 30.8542 225.271 33.784H226.271ZM235.203 23.268C238.433 23.268 241.342 25.3509 242.431 28.7524L243.383 28.4476C242.168 24.6491 238.885 22.268 235.203 22.268V23.268ZM243.115 29.0546L250.819 25.5266L250.403 24.6174L242.699 28.1454L243.115 29.0546ZM256.195 52H255.695V52.5H256.195V52ZM264.979 52V52.5H265.479V52H264.979ZM280.099 52H279.599V52.5H280.099V52ZM288.883 52V52.5H289.383V52H288.883ZM265.123 19.168V19.668H265.369L265.519 19.4734L265.123 19.168ZM264.979 19.168H264.479V19.668H264.979V19.168ZM264.979 0.736H265.479V0.236H264.979V0.736ZM256.195 0.736V0.236H255.695V0.736H256.195ZM256.195 52.5H264.979V51.5H256.195V52.5ZM265.479 52V33.28H264.479V52H265.479ZM265.479 33.28C265.479 31.1104 265.971 28.6995 267.229 26.8468C268.468 25.0208 270.474 23.7 273.619 23.7V22.7C270.14 22.7 267.826 24.1872 266.401 26.2852C264.995 28.3565 264.479 30.9856 264.479 33.28H265.479ZM273.619 23.7C275.778 23.7 277.233 24.222 278.163 25.2461C279.102 26.2813 279.599 27.9309 279.599 30.4H280.599C280.599 27.8291 280.088 25.8787 278.903 24.5739C277.709 23.258 275.924 22.7 273.619 22.7V23.7ZM279.599 30.4V52H280.599V30.4H279.599ZM280.099 52.5H288.883V51.5H280.099V52.5ZM289.383 52V27.88H288.383V52H289.383ZM289.383 27.88C289.383 22.4646 287.552 19.0105 284.85 16.9271C282.172 14.8619 278.716 14.204 275.563 14.204V15.204C278.602 15.204 281.806 15.8421 284.24 17.7189C286.65 19.5775 288.383 22.7114 288.383 27.88H289.383ZM275.563 14.204C270.46 14.204 266.778 16.2046 264.727 18.8626L265.519 19.4734C267.356 17.0914 270.73 15.204 275.563 15.204V14.204ZM265.123 18.668H264.979V19.668H265.123V18.668ZM265.479 19.168V0.736H264.479V19.168H265.479ZM264.979 0.236H256.195V1.236H264.979V0.236ZM255.695 0.736V52H256.695V0.736H255.695ZM331.379 35.872V36.372H331.879V35.872H331.379ZM331.811 43.936L332.229 44.21L332.518 43.7692L332.062 43.504L331.811 43.936ZM324.395 39.616L324.646 39.184L324.251 38.9533L323.986 39.3277L324.395 39.616ZM304.451 35.872V35.372H303.937L303.951 35.8853L304.451 35.872ZM304.451 29.104L303.965 28.987L303.816 29.604H304.451V29.104ZM322.163 29.104V29.604H322.663V29.104H322.163ZM331.879 35.872C331.879 29.3 330.537 23.88 327.588 20.0938C324.622 16.2854 320.088 14.204 313.883 14.204V15.204C319.845 15.204 324.06 17.1906 326.799 20.7082C329.556 24.248 330.879 29.412 330.879 35.872H331.879ZM313.883 14.204C307.857 14.204 303.057 16.3019 299.765 19.8257C296.478 23.3448 294.735 28.2442 294.735 33.784H295.735C295.735 28.4518 297.411 23.8112 300.496 20.5083C303.577 17.2101 308.101 15.204 313.883 15.204V14.204ZM294.735 33.784C294.735 39.3238 296.478 44.2232 299.765 47.7423C303.057 51.2661 307.857 53.364 313.883 53.364V52.364C308.101 52.364 303.577 50.3579 300.496 47.0597C297.411 43.7568 295.735 39.1162 295.735 33.784H294.735ZM313.883 53.364C324.015 53.364 329.417 48.5023 332.229 44.21L331.393 43.662C328.733 47.7217 323.623 52.364 313.883 52.364V53.364ZM332.062 43.504L324.646 39.184L324.143 40.048L331.559 44.368L332.062 43.504ZM323.986 39.3277C323.56 39.9311 322.702 41.1653 321.123 42.2555C319.549 43.3419 317.236 44.3 313.883 44.3V45.3C317.442 45.3 319.953 44.2781 321.691 43.0785C323.423 41.8827 324.365 40.5249 324.803 39.9043L323.986 39.3277ZM313.883 44.3C309.36 44.3 305.086 40.948 304.951 35.8587L303.951 35.8853C304.103 41.596 308.901 45.3 313.883 45.3V44.3ZM304.451 36.372H331.379V35.372H304.451V36.372ZM304.937 29.221C305.823 25.5412 309.018 22.404 313.883 22.404V21.404C308.523 21.404 304.951 24.8908 303.965 28.987L304.937 29.221ZM313.883 22.404C316.668 22.404 318.605 23.6371 319.857 25.1C321.129 26.587 321.663 28.2757 321.663 29.104H322.663C322.663 27.9883 322.009 26.077 320.617 24.45C319.204 22.7989 317.002 21.404 313.883 21.404V22.404ZM322.163 28.604H304.451V29.604H322.163V28.604ZM393.082 52.576L392.88 53.0335L393.582 53.3428V52.576H393.082ZM393.082 44.944H393.582V44.611L393.274 44.4826L393.082 44.944ZM366.37 33.784L366.177 33.3226L365.073 33.784L366.177 34.2454L366.37 33.784ZM393.082 22.624L393.274 23.0854L393.582 22.957V22.624H393.082ZM393.082 14.992H393.582V14.2252L392.88 14.5345L393.082 14.992ZM356.65 31.048L356.448 30.5905L356.15 30.722V31.048H356.65ZM356.65 36.52H356.15V36.846L356.448 36.9775L356.65 36.52ZM393.582 52.576V44.944H392.582V52.576H393.582ZM393.274 44.4826L366.562 33.3226L366.177 34.2454L392.889 45.4054L393.274 44.4826ZM366.562 34.2454L393.274 23.0854L392.889 22.1626L366.177 33.3226L366.562 34.2454ZM393.582 22.624V14.992H392.582V22.624H393.582ZM392.88 14.5345L356.448 30.5905L356.851 31.5055L393.283 15.4495L392.88 14.5345ZM356.15 31.048V36.52H357.15V31.048H356.15ZM356.448 36.9775L392.88 53.0335L393.283 52.1185L356.851 36.0625L356.448 36.9775ZM419.861 14.992L420.062 14.5345L419.361 14.2252V14.992H419.861ZM419.861 22.624H419.361V22.957L419.668 23.0854L419.861 22.624ZM446.573 33.784L446.765 34.2454L447.87 33.784L446.765 33.3226L446.573 33.784ZM419.861 44.944L419.668 44.4826L419.361 44.611V44.944H419.861ZM419.861 52.576H419.361V53.3428L420.062 53.0335L419.861 52.576ZM456.293 36.52L456.494 36.9775L456.793 36.846V36.52H456.293ZM456.293 31.048H456.793V30.722L456.494 30.5905L456.293 31.048ZM419.361 14.992V22.624H420.361V14.992H419.361ZM419.668 23.0854L446.38 34.2454L446.765 33.3226L420.053 22.1626L419.668 23.0854ZM446.38 33.3226L419.668 44.4826L420.053 45.4054L446.765 34.2454L446.38 33.3226ZM419.361 44.944V52.576H420.361V44.944H419.361ZM420.062 53.0335L456.494 36.9775L456.091 36.0625L419.659 52.1185L420.062 53.0335ZM456.793 36.52V31.048H455.793V36.52H456.793ZM456.494 30.5905L420.062 14.5345L419.659 15.4495L456.091 31.5055L456.494 30.5905ZM484.367 52H483.867V52.5H484.367V52ZM522.528 52V52.5H523.028V52H522.528ZM522.528 43.072H523.028V42.572H522.528V43.072ZM494.016 43.072H493.516V43.572H494.016V43.072ZM494.016 29.824V29.324H493.516V29.824H494.016ZM518.495 29.824V30.324H518.995V29.824H518.495ZM518.495 21.328H518.995V20.828H518.495V21.328ZM494.016 21.328H493.516V21.828H494.016V21.328ZM494.016 9.664V9.164H493.516V9.664H494.016ZM520.656 9.664V10.164H521.156V9.664H520.656ZM520.656 0.736H521.156V0.236H520.656V0.736ZM484.367 0.736V0.236H483.867V0.736H484.367ZM484.367 52.5H522.528V51.5H484.367V52.5ZM523.028 52V43.072H522.028V52H523.028ZM522.528 42.572H494.016V43.572H522.528V42.572ZM494.516 43.072V29.824H493.516V43.072H494.516ZM494.016 30.324H518.495V29.324H494.016V30.324ZM518.995 29.824V21.328H517.995V29.824H518.995ZM518.495 20.828H494.016V21.828H518.495V20.828ZM494.516 21.328V9.664H493.516V21.328H494.516ZM494.016 10.164H520.656V9.164H494.016V10.164ZM521.156 9.664V0.736H520.156V9.664H521.156ZM520.656 0.236H484.367V1.236H520.656V0.236ZM483.867 0.736V52H484.867V0.736H483.867ZM529.391 15.568V16.068H529.891V15.568H529.391ZM524.063 15.568V15.068H523.563V15.568H524.063ZM524.063 21.904H523.563V22.404H524.063V21.904ZM529.391 21.904H529.891V21.404H529.391V21.904ZM546.023 51.568L546.124 52.0576L546.523 51.9751V51.568H546.023ZM546.023 44.368H546.523V43.8094L545.968 43.8711L546.023 44.368ZM538.175 21.904V21.404H537.675V21.904H538.175ZM546.023 21.904V22.404H546.523V21.904H546.023ZM546.023 15.568H546.523V15.068H546.023V15.568ZM538.175 15.568H537.675V16.068H538.175V15.568ZM538.175 2.68H538.675V2.18H538.175V2.68ZM529.391 2.68V2.18H528.891V2.68H529.391ZM529.391 15.068H524.063V16.068H529.391V15.068ZM523.563 15.568V21.904H524.563V15.568H523.563ZM524.063 22.404H529.391V21.404H524.063V22.404ZM528.891 21.904V43.648H529.891V21.904H528.891ZM528.891 43.648C528.891 46.4826 529.516 48.8366 531.163 50.4736C532.808 52.1091 535.376 52.932 539.039 52.932V51.932C535.502 51.932 533.246 51.1349 531.868 49.7644C530.49 48.3954 529.891 46.3574 529.891 43.648H528.891ZM539.039 52.932C541.83 52.932 544.033 52.4903 546.124 52.0576L545.922 51.0784C543.837 51.5097 541.72 51.932 539.039 51.932V52.932ZM546.523 51.568V44.368H545.523V51.568H546.523ZM545.968 43.8711C545.312 43.9439 544.624 44.055 543.984 44.1426C543.332 44.232 542.712 44.3 542.135 44.3V45.3C542.783 45.3 543.458 45.224 544.12 45.1334C544.795 45.041 545.438 44.9361 546.078 44.8649L545.968 43.8711ZM542.135 44.3C540.506 44.3 539.714 43.9182 539.286 43.348C538.828 42.7375 538.675 41.7777 538.675 40.336H537.675C537.675 41.7743 537.81 43.0465 538.486 43.948C539.192 44.8898 540.38 45.3 542.135 45.3V44.3ZM538.675 40.336V21.904H537.675V40.336H538.675ZM538.175 22.404H546.023V21.404H538.175V22.404ZM546.523 21.904V15.568H545.523V21.904H546.523ZM546.023 15.068H538.175V16.068H546.023V15.068ZM538.675 15.568V2.68H537.675V15.568H538.675ZM538.175 2.18H529.391V3.18H538.175V2.18ZM528.891 2.68V15.568H529.891V2.68H528.891ZM550.734 52H550.234V52.5H550.734V52ZM559.518 52V52.5H560.018V52H559.518ZM574.638 52H574.138V52.5H574.638V52ZM583.422 52V52.5H583.922V52H583.422ZM559.662 19.168V19.668H559.908L560.058 19.4734L559.662 19.168ZM559.518 19.168H559.018V19.668H559.518V19.168ZM559.518 0.736H560.018V0.236H559.518V0.736ZM550.734 0.736V0.236H550.234V0.736H550.734ZM550.734 52.5H559.518V51.5H550.734V52.5ZM560.018 52V33.28H559.018V52H560.018ZM560.018 33.28C560.018 31.1104 560.51 28.6995 561.768 26.8468C563.007 25.0208 565.013 23.7 568.158 23.7V22.7C564.679 22.7 562.365 24.1872 560.94 26.2852C559.534 28.3565 559.018 30.9856 559.018 33.28H560.018ZM568.158 23.7C570.317 23.7 571.772 24.222 572.702 25.2461C573.642 26.2813 574.138 27.9309 574.138 30.4H575.138C575.138 27.8291 574.627 25.8787 573.442 24.5739C572.248 23.258 570.463 22.7 568.158 22.7V23.7ZM574.138 30.4V52H575.138V30.4H574.138ZM574.638 52.5H583.422V51.5H574.638V52.5ZM583.922 52V27.88H582.922V52H583.922ZM583.922 27.88C583.922 22.4646 582.091 19.0105 579.389 16.9271C576.711 14.8619 573.255 14.204 570.102 14.204V15.204C573.141 15.204 576.345 15.8421 578.779 17.7189C581.189 19.5775 582.922 22.7114 582.922 27.88H583.922ZM570.102 14.204C564.999 14.204 561.317 16.2046 559.266 18.8626L560.058 19.4734C561.896 17.0914 565.269 15.204 570.102 15.204V14.204ZM559.662 18.668H559.518V19.668H559.662V18.668ZM560.018 19.168V0.736H559.018V19.168H560.018ZM559.518 0.236H550.734V1.236H559.518V0.236ZM550.234 0.736V52H551.234V0.736H550.234ZM625.918 35.872V36.372H626.418V35.872H625.918ZM626.35 43.936L626.768 44.21L627.057 43.7692L626.602 43.504L626.35 43.936ZM618.934 39.616L619.185 39.184L618.79 38.9533L618.525 39.3277L618.934 39.616ZM598.99 35.872V35.372H598.476L598.49 35.8853L598.99 35.872ZM598.99 29.104L598.504 28.987L598.355 29.604H598.99V29.104ZM616.702 29.104V29.604H617.202V29.104H616.702ZM626.418 35.872C626.418 29.3 625.076 23.88 622.127 20.0938C619.161 16.2854 614.627 14.204 608.422 14.204V15.204C614.384 15.204 618.599 17.1906 621.338 20.7082C624.095 24.248 625.418 29.412 625.418 35.872H626.418ZM608.422 14.204C602.396 14.204 597.596 16.3019 594.304 19.8257C591.017 23.3448 589.274 28.2442 589.274 33.784H590.274C590.274 28.4518 591.95 23.8112 595.035 20.5083C598.116 17.2101 602.64 15.204 608.422 15.204V14.204ZM589.274 33.784C589.274 39.3238 591.017 44.2232 594.304 47.7423C597.596 51.2661 602.396 53.364 608.422 53.364V52.364C602.64 52.364 598.116 50.3579 595.035 47.0597C591.95 43.7568 590.274 39.1162 590.274 33.784H589.274ZM608.422 53.364C618.554 53.364 623.956 48.5023 626.768 44.21L625.932 43.662C623.272 47.7217 618.162 52.364 608.422 52.364V53.364ZM626.602 43.504L619.185 39.184L618.682 40.048L626.098 44.368L626.602 43.504ZM618.525 39.3277C618.099 39.9311 617.241 41.1653 615.662 42.2555C614.088 43.3419 611.775 44.3 608.422 44.3V45.3C611.981 45.3 614.492 44.2781 616.23 43.0785C617.962 41.8827 618.904 40.5249 619.342 39.9043L618.525 39.3277ZM608.422 44.3C603.899 44.3 599.625 40.948 599.49 35.8587L598.49 35.8853C598.642 41.596 603.441 45.3 608.422 45.3V44.3ZM598.99 36.372H625.918V35.372H598.99V36.372ZM599.476 29.221C600.362 25.5412 603.557 22.404 608.422 22.404V21.404C603.062 21.404 599.49 24.8908 598.504 28.987L599.476 29.221ZM608.422 22.404C611.207 22.404 613.144 23.6371 614.396 25.1C615.668 26.587 616.202 28.2757 616.202 29.104H617.202C617.202 27.9883 616.548 26.077 615.156 24.45C613.743 22.7989 611.541 21.404 608.422 21.404V22.404ZM616.702 28.604H598.99V29.604H616.702V28.604ZM632.086 52H631.586V52.5H632.086V52ZM640.87 52V52.5H641.37V52H640.87ZM652.246 23.632V24.132H652.746V23.632H652.246ZM652.246 14.704H652.746V14.204H652.246V14.704ZM641.014 20.608V21.108H641.323L641.461 20.8316L641.014 20.608ZM640.87 20.608H640.37V21.108H640.87V20.608ZM640.87 15.568H641.37V15.068H640.87V15.568ZM632.086 15.568V15.068H631.586V15.568H632.086ZM632.086 52.5H640.87V51.5H632.086V52.5ZM641.37 52V34.36H640.37V52H641.37ZM641.37 34.36C641.37 30.5242 642.671 27.9965 644.631 26.4151C646.609 24.8191 649.326 24.132 652.246 24.132V23.132C649.189 23.132 646.219 23.8489 644.003 25.6369C641.768 27.4395 640.37 30.2758 640.37 34.36H641.37ZM652.746 23.632V14.704H651.746V23.632H652.746ZM652.246 14.204C647.02 14.204 642.768 15.9806 640.566 20.3844L641.461 20.8316C643.435 16.8834 647.247 15.204 652.246 15.204V14.204ZM641.014 20.108H640.87V21.108H641.014V20.108ZM641.37 20.608V15.568H640.37V20.608H641.37ZM640.87 15.068H632.086V16.068H640.87V15.068ZM631.586 15.568V52H632.586V15.568H631.586ZM691.238 35.872V36.372H691.738V35.872H691.238ZM691.67 43.936L692.088 44.21L692.377 43.7692L691.922 43.504L691.67 43.936ZM684.254 39.616L684.506 39.184L684.11 38.9533L683.846 39.3277L684.254 39.616ZM664.31 35.872V35.372H663.797L663.81 35.8853L664.31 35.872ZM664.31 29.104L663.824 28.987L663.675 29.604H664.31V29.104ZM682.022 29.104V29.604H682.522V29.104H682.022ZM691.738 35.872C691.738 29.3 690.397 23.88 687.448 20.0938C684.481 16.2854 679.947 14.204 673.742 14.204V15.204C679.705 15.204 683.919 17.1906 686.659 20.7082C689.416 24.248 690.738 29.412 690.738 35.872H691.738ZM673.742 14.204C667.716 14.204 662.916 16.3019 659.625 19.8257C656.338 23.3448 654.594 28.2442 654.594 33.784H655.594C655.594 28.4518 657.27 23.8112 660.356 20.5083C663.436 17.2101 667.96 15.204 673.742 15.204V14.204ZM654.594 33.784C654.594 39.3238 656.338 44.2232 659.625 47.7423C662.916 51.2661 667.716 53.364 673.742 53.364V52.364C667.96 52.364 663.436 50.3579 660.356 47.0597C657.27 43.7568 655.594 39.1162 655.594 33.784H654.594ZM673.742 53.364C683.874 53.364 689.276 48.5023 692.088 44.21L691.252 43.662C688.592 47.7217 683.482 52.364 673.742 52.364V53.364ZM691.922 43.504L684.506 39.184L684.002 40.048L691.418 44.368L691.922 43.504ZM683.846 39.3277C683.42 39.9311 682.562 41.1653 680.982 42.2555C679.408 43.3419 677.095 44.3 673.742 44.3V45.3C677.301 45.3 679.812 44.2781 681.55 43.0785C683.283 41.8827 684.225 40.5249 684.663 39.9043L683.846 39.3277ZM673.742 44.3C669.219 44.3 664.946 40.948 664.81 35.8587L663.81 35.8853C663.963 41.596 668.761 45.3 673.742 45.3V44.3ZM664.31 36.372H691.238V35.372H664.31V36.372ZM664.796 29.221C665.682 25.5412 668.878 22.404 673.742 22.404V21.404C668.383 21.404 664.81 24.8908 663.824 28.987L664.796 29.221ZM673.742 22.404C676.527 22.404 678.465 23.6371 679.716 25.1C680.988 26.587 681.522 28.2757 681.522 29.104H682.522C682.522 27.9883 681.868 26.077 680.476 24.45C679.064 22.7989 676.861 21.404 673.742 21.404V22.404ZM682.022 28.604H664.31V29.604H682.022V28.604ZM730.094 15.568H730.594V15.068H730.094V15.568ZM721.31 15.568V15.068H720.81V15.568H721.31ZM706.19 15.568H706.69V15.068H706.19V15.568ZM697.406 15.568V15.068H696.906V15.568H697.406ZM721.166 48.4V47.9H720.92L720.77 48.0946L721.166 48.4ZM721.31 48.4H721.81V47.9H721.31V48.4ZM721.31 52H720.81V52.5H721.31V52ZM730.094 52V52.5H730.594V52H730.094ZM730.094 15.068H721.31V16.068H730.094V15.068ZM720.81 15.568V35.152H721.81V15.568H720.81ZM720.81 35.152C720.81 37.2829 720.319 39.4662 719.076 41.1047C717.849 42.7203 715.845 43.868 712.67 43.868V44.868C716.119 44.868 718.434 43.6037 719.872 41.7093C721.293 39.8378 721.81 37.4131 721.81 35.152H720.81ZM712.67 43.868C710.511 43.868 709.056 43.346 708.126 42.3219C707.186 41.2867 706.69 39.6371 706.69 37.168H705.69C705.69 39.7389 706.201 41.6893 707.386 42.9941C708.58 44.31 710.365 44.868 712.67 44.868V43.868ZM706.69 37.168V15.568H705.69V37.168H706.69ZM706.19 15.068H697.406V16.068H706.19V15.068ZM696.906 15.568V39.688H697.906V15.568H696.906ZM696.906 39.688C696.906 45.1034 698.737 48.5575 701.439 50.6409C704.117 52.7061 707.573 53.364 710.726 53.364V52.364C707.687 52.364 704.483 51.7259 702.049 49.8491C699.639 47.9905 697.906 44.8566 697.906 39.688H696.906ZM710.726 53.364C715.829 53.364 719.511 51.3634 721.562 48.7054L720.77 48.0946C718.932 50.4766 715.559 52.364 710.726 52.364V53.364ZM721.166 48.9H721.31V47.9H721.166V48.9ZM720.81 48.4V52H721.81V48.4H720.81ZM721.31 52.5H730.094V51.5H721.31V52.5ZM730.594 52V15.568H729.594V52H730.594ZM738.75 52H738.25V52.5H738.75V52ZM747.534 52V52.5H748.034V52H747.534ZM761.358 52H760.858V52.5H761.358V52ZM770.142 52V52.5H770.642V52H770.142ZM783.966 52H783.466V52.5H783.966V52ZM792.75 52V52.5H793.25V52H792.75ZM768.774 20.176L768.317 20.3798L768.662 21.1532L769.173 20.4773L768.774 20.176ZM747.534 19.168H747.034V20.3982L747.892 19.5168L747.534 19.168ZM747.534 15.568H748.034V15.068H747.534V15.568ZM738.75 15.568V15.068H738.25V15.568H738.75ZM738.75 52.5H747.534V51.5H738.75V52.5ZM748.034 52V32.776H747.034V52H748.034ZM748.034 32.776C748.034 30.2722 748.748 27.8763 750.01 26.1197C751.266 24.3713 753.051 23.268 755.238 23.268V22.268C752.672 22.268 750.605 23.5767 749.198 25.5363C747.796 27.4877 747.034 30.0957 747.034 32.776H748.034ZM755.238 23.268C757.235 23.268 758.61 23.9551 759.499 25.0766C760.403 26.2169 760.858 27.873 760.858 29.896H761.858C761.858 27.743 761.376 25.8351 760.282 24.4554C759.174 23.0569 757.489 22.268 755.238 22.268V23.268ZM760.858 29.896V52H761.858V29.896H760.858ZM761.358 52.5H770.142V51.5H761.358V52.5ZM770.642 52V32.776H769.642V52H770.642ZM770.642 32.776C770.642 30.2722 771.356 27.8777 772.634 26.1223C773.905 24.3763 775.726 23.268 777.99 23.268V22.268C775.357 22.268 773.254 23.5717 771.826 25.5337C770.404 27.4863 769.642 30.0958 769.642 32.776H770.642ZM777.99 23.268C779.909 23.268 781.248 23.9508 782.122 25.0732C783.011 26.2148 783.466 27.8731 783.466 29.896H784.466C784.466 27.7429 783.984 25.8372 782.911 24.4588C781.823 23.0612 780.174 22.268 777.99 22.268V23.268ZM783.466 29.896V52H784.466V29.896H783.466ZM783.966 52.5H792.75V51.5H783.966V52.5ZM793.25 52V26.368H792.25V52H793.25ZM793.25 26.368C793.25 22.338 792.007 19.2701 789.678 17.2179C787.36 15.175 784.038 14.204 780.006 14.204V15.204C783.893 15.204 786.944 16.141 789.017 17.9681C791.08 19.7859 792.25 22.55 792.25 26.368H793.25ZM780.006 14.204C774.953 14.204 771.133 16.2214 768.375 19.8747L769.173 20.4773C771.742 17.0746 775.266 15.204 780.006 15.204V14.204ZM769.23 19.9722C767.307 15.663 762.429 14.204 758.046 14.204V15.204C762.303 15.204 766.641 16.625 768.317 20.3798L769.23 19.9722ZM758.046 14.204C753.213 14.204 749.92 16.0002 747.175 18.8192L747.892 19.5168C750.475 16.8638 753.519 15.204 758.046 15.204V14.204ZM748.034 19.168V15.568H747.034V19.168H748.034ZM747.534 15.068H738.75V16.068H747.534V15.068ZM738.25 15.568V52H739.25V15.568H738.25ZM831.445 28.528V28.028H830.945V28.528H831.445ZM831.445 43.504H830.945V44.004H831.445V43.504ZM831.445 8.368V7.868H830.945V8.368H831.445ZM831.445 21.328H830.945V21.828H831.445V21.328ZM821.797 52H821.297V52.5H821.797V52ZM852.397 23.992H851.897V24.4436L852.346 24.4894L852.397 23.992ZM852.397 23.848L852.303 23.357L851.897 23.435V23.848H852.397ZM821.797 0.736V0.236H821.297V0.736H821.797ZM831.445 29.028H843.901V28.028H831.445V29.028ZM843.901 29.028C846.774 29.028 849 29.5453 850.501 30.6896C851.974 31.8129 852.833 33.6073 852.833 36.376H853.833C853.833 33.3847 852.892 31.2551 851.107 29.8944C849.35 28.5547 846.861 28.028 843.901 28.028V29.028ZM852.833 36.376C852.833 38.9168 852.001 40.5254 850.555 41.527C849.071 42.5552 846.857 43.004 843.973 43.004V44.004C846.922 44.004 849.387 43.5528 851.125 42.349C852.901 41.1186 853.833 39.1632 853.833 36.376H852.833ZM843.973 43.004H831.445V44.004H843.973V43.004ZM831.945 43.504V28.528H830.945V43.504H831.945ZM831.445 8.868H842.893V7.868H831.445V8.868ZM842.893 8.868C845.636 8.868 847.537 9.48433 848.746 10.4973C849.941 11.4983 850.529 12.9457 850.529 14.776H851.529C851.529 12.7183 850.857 10.9617 849.388 9.73074C847.933 8.51167 845.767 7.868 842.893 7.868V8.868ZM850.529 14.776C850.529 17.0693 849.63 18.548 848.272 19.475C846.885 20.4221 844.965 20.828 842.893 20.828V21.828C845.069 21.828 847.217 21.4059 848.836 20.301C850.484 19.176 851.529 17.3787 851.529 14.776H850.529ZM842.893 20.828H831.445V21.828H842.893V20.828ZM831.945 21.328V8.368H830.945V21.328H831.945ZM821.797 52.5H843.613V51.5H821.797V52.5ZM843.613 52.5C848.959 52.5 854.029 51.8725 857.772 49.5635C861.565 47.2237 863.913 43.2109 863.913 36.664H862.913C862.913 42.9331 860.69 46.5883 857.247 48.7125C853.753 50.8675 848.924 51.5 843.613 51.5V52.5ZM863.913 36.664C863.913 30.3376 859.806 24.2454 852.448 23.4946L852.346 24.4894C859.1 25.1786 862.913 30.7504 862.913 36.664H863.913ZM852.897 23.992V23.848H851.897V23.992H852.897ZM852.492 24.339C855.387 23.7823 857.677 22.5477 859.242 20.6868C860.808 18.825 861.609 16.3818 861.609 13.48H860.609C860.609 16.1942 859.863 18.395 858.477 20.0432C857.09 21.6923 855.024 22.8337 852.303 23.357L852.492 24.339ZM861.609 13.48C861.609 9.08314 859.85 5.74879 856.978 3.52655C854.122 1.31656 850.206 0.236 845.917 0.236V1.236C850.052 1.236 853.732 2.27944 856.366 4.31744C858.984 6.34321 860.609 9.38086 860.609 13.48H861.609ZM845.917 0.236H821.797V1.236H845.917V0.236ZM821.297 0.736V52H822.297V0.736H821.297ZM869.461 52H868.961V52.5H869.461V52ZM878.245 52V52.5H878.745V52H878.245ZM889.621 23.632V24.132H890.121V23.632H889.621ZM889.621 14.704H890.121V14.204H889.621V14.704ZM878.389 20.608V21.108H878.698L878.836 20.8316L878.389 20.608ZM878.245 20.608H877.745V21.108H878.245V20.608ZM878.245 15.568H878.745V15.068H878.245V15.568ZM869.461 15.568V15.068H868.961V15.568H869.461ZM869.461 52.5H878.245V51.5H869.461V52.5ZM878.745 52V34.36H877.745V52H878.745ZM878.745 34.36C878.745 30.5242 880.046 27.9965 882.006 26.4151C883.984 24.8191 886.701 24.132 889.621 24.132V23.132C886.564 23.132 883.594 23.8489 881.378 25.6369C879.143 27.4395 877.745 30.2758 877.745 34.36H878.745ZM890.121 23.632V14.704H889.121V23.632H890.121ZM889.621 14.204C884.395 14.204 880.143 15.9806 877.941 20.3844L878.836 20.8316C880.81 16.8834 884.622 15.204 889.621 15.204V14.204ZM878.389 20.108H878.245V21.108H878.389V20.108ZM878.745 20.608V15.568H877.745V20.608H878.745ZM878.245 15.068H869.461V16.068H878.245V15.068ZM868.961 15.568V52H869.961V15.568H868.961ZM894.773 52H894.273V52.5H894.773V52ZM903.557 52V52.5H904.057V52H903.557ZM903.557 15.568H904.057V15.068H903.557V15.568ZM894.773 15.568V15.068H894.273V15.568H894.773ZM894.773 9.664H894.273V10.164H894.773V9.664ZM903.557 9.664V10.164H904.057V9.664H903.557ZM903.557 0.736H904.057V0.236H903.557V0.736ZM894.773 0.736V0.236H894.273V0.736H894.773ZM894.773 52.5H903.557V51.5H894.773V52.5ZM904.057 52V15.568H903.057V52H904.057ZM903.557 15.068H894.773V16.068H903.557V15.068ZM894.273 15.568V52H895.273V15.568H894.273ZM894.773 10.164H903.557V9.164H894.773V10.164ZM904.057 9.664V0.736H903.057V9.664H904.057ZM903.557 0.236H894.773V1.236H903.557V0.236ZM894.273 0.736V9.664H895.273V0.736H894.273ZM936.403 33.784L936.903 33.7909L936.903 33.7771L936.403 33.784ZM919.123 33.784L918.622 33.7771L918.623 33.7908L919.123 33.784ZM936.115 52H935.615V52.5H936.115V52ZM944.899 52V52.5H945.399V52H944.899ZM944.899 0.736H945.399V0.236H944.899V0.736ZM936.115 0.736V0.236H935.615V0.736H936.115ZM936.115 18.664L935.776 19.0322L936.615 19.8025V18.664H936.115ZM935.971 48.472V47.972H935.736L935.586 48.1519L935.971 48.472ZM936.115 48.472H936.615V47.972H936.115V48.472ZM927.763 23.268C930.899 23.268 932.883 24.6167 934.117 26.5718C935.371 28.5591 935.867 31.2082 935.903 33.7908L936.903 33.7771C936.866 31.1038 936.355 28.2449 934.963 26.0382C933.55 23.7993 931.25 22.268 927.763 22.268V23.268ZM935.903 33.7771C935.867 36.3598 935.371 39.0089 934.117 40.9962C932.883 42.9513 930.899 44.3 927.763 44.3V45.3C931.25 45.3 933.55 43.7687 934.963 41.5298C936.355 39.3231 936.866 36.4642 936.903 33.7908L935.903 33.7771ZM927.763 44.3C924.626 44.3 922.642 42.9513 921.409 40.9962C920.155 39.0089 919.658 36.3598 919.623 33.7771L918.623 33.7908C918.659 36.4642 919.171 39.3231 920.563 41.5298C921.975 43.7687 924.275 45.3 927.763 45.3V44.3ZM919.623 33.7908C919.658 31.2082 920.155 28.5591 921.409 26.5718C922.642 24.6167 924.626 23.268 927.763 23.268V22.268C924.275 22.268 921.975 23.7993 920.563 26.0382C919.171 28.2449 918.659 31.1038 918.623 33.7771L919.623 33.7908ZM936.115 52.5H944.899V51.5H936.115V52.5ZM945.399 52V0.736H944.399V52H945.399ZM944.899 0.236H936.115V1.236H944.899V0.236ZM935.615 0.736V18.664H936.615V0.736H935.615ZM936.453 18.2958C933.7 15.7665 930.197 14.204 925.747 14.204V15.204C929.936 15.204 933.201 16.6655 935.776 19.0322L936.453 18.2958ZM925.747 14.204C916.016 14.204 909.407 23.1011 909.407 33.784H910.407C910.407 23.4429 916.757 15.204 925.747 15.204V14.204ZM909.407 33.784C909.407 44.4669 916.016 53.364 925.747 53.364V52.364C916.757 52.364 910.407 44.1251 910.407 33.784H909.407ZM925.747 53.364C928.433 53.364 930.525 52.9037 932.234 52.0916C933.945 51.2789 935.241 50.1281 936.355 48.7921L935.586 48.1519C934.54 49.4079 933.353 50.4531 931.805 51.1884C930.256 51.9243 928.317 52.364 925.747 52.364V53.364ZM935.971 48.972H936.115V47.972H935.971V48.972ZM935.615 48.472V52H936.615V48.472H935.615ZM986.242 15.568H986.742V15.068H986.242V15.568ZM977.458 15.568V15.068H976.958V15.568H977.458ZM977.458 19.096V19.596H977.958V19.096H977.458ZM977.314 19.096L976.93 19.4161L977.08 19.596H977.314V19.096ZM977.458 46.096H977.958V44.8227L977.092 45.7558L977.458 46.096ZM961.69 52.792L962.175 52.6675L962.078 52.292H961.69V52.792ZM952.474 52.792V52.292H951.974V52.792H952.474ZM977.746 32.416L978.246 32.4253L978.246 32.416L978.246 32.4067L977.746 32.416ZM960.466 32.416L959.966 32.4067L959.966 32.416L959.966 32.4253L960.466 32.416ZM986.242 15.068H977.458V16.068H986.242V15.068ZM976.958 15.568V19.096H977.958V15.568H976.958ZM977.458 18.596H977.314V19.596H977.458V18.596ZM977.698 18.7759C976.585 17.4399 975.288 16.2891 973.578 15.4764C971.869 14.6643 969.776 14.204 967.09 14.204V15.204C969.66 15.204 971.6 15.6437 973.149 16.3796C974.696 17.1149 975.884 18.1601 976.93 19.4161L977.698 18.7759ZM967.09 14.204C962.425 14.204 958.328 15.9472 955.401 19.1168C952.476 22.2842 950.75 26.8404 950.75 32.416H951.75C951.75 27.0476 953.409 22.7478 956.136 19.7952C958.86 16.8448 962.684 15.204 967.09 15.204V14.204ZM950.75 32.416C950.75 37.9916 952.476 42.5478 955.401 45.7152C958.328 48.8848 962.425 50.628 967.09 50.628V49.628C962.684 49.628 958.86 47.9872 956.136 45.0368C953.409 42.0842 951.75 37.7844 951.75 32.416H950.75ZM967.09 50.628C970.332 50.628 974.885 49.6017 977.825 46.4362L977.092 45.7558C974.415 48.6383 970.185 49.628 967.09 49.628V50.628ZM976.958 46.096V49.984H977.958V46.096H976.958ZM976.958 49.984C976.958 52.1197 976.341 53.8074 975.109 54.9658C973.873 56.1283 971.943 56.828 969.178 56.828V57.828C972.101 57.828 974.312 57.0877 975.794 55.6942C977.28 54.2966 977.958 52.3123 977.958 49.984H976.958ZM969.178 56.828C964.947 56.828 962.75 54.9071 962.175 52.6675L961.206 52.9165C961.926 55.7169 964.626 57.828 969.178 57.828V56.828ZM961.69 52.292H952.474V53.292H961.69V52.292ZM951.974 52.792C951.974 55.1738 952.843 58.1337 955.218 60.4993C957.599 62.8716 961.445 64.596 967.306 64.596V63.596C961.647 63.596 958.077 61.9364 955.923 59.7907C953.762 57.6383 952.974 54.9462 952.974 52.792H951.974ZM967.306 64.596C972.866 64.596 977.714 63.9686 981.182 61.9734C982.927 60.9694 984.325 59.6178 985.283 57.8321C986.24 56.0496 986.742 53.8628 986.742 51.208H985.742C985.742 53.7372 985.264 55.7534 984.402 57.3594C983.542 58.9622 982.286 60.1846 980.683 61.1066C977.455 62.9634 972.835 63.596 967.306 63.596V64.596ZM986.742 51.208V15.568H985.742V51.208H986.742ZM977.246 32.4067C977.212 34.286 976.723 36.5932 975.471 38.4149C974.237 40.2113 972.246 41.564 969.106 41.564V42.564C972.59 42.564 974.883 41.0367 976.296 38.9811C977.69 36.9508 978.209 34.434 978.246 32.4253L977.246 32.4067ZM969.106 41.564C965.966 41.564 963.975 40.2113 962.742 38.4149C961.49 36.5932 961.001 34.286 960.966 32.4067L959.966 32.4253C960.004 34.434 960.523 36.9508 961.917 38.9811C963.329 41.0367 965.622 42.564 969.106 42.564V41.564ZM960.966 32.4253C961.001 30.546 961.49 28.2388 962.742 26.4171C963.975 24.6207 965.966 23.268 969.106 23.268V22.268C965.622 22.268 963.329 23.7953 961.917 25.8509C960.523 27.8812 960.004 30.398 959.966 32.4067L960.966 32.4253ZM969.106 23.268C972.246 23.268 974.237 24.6207 975.471 26.4171C976.723 28.2388 977.212 30.546 977.246 32.4253L978.246 32.4067C978.209 30.398 977.69 27.8812 976.296 25.8509C974.883 23.7953 972.59 22.268 969.106 22.268V23.268ZM1028.74 35.872V36.372H1029.24V35.872H1028.74ZM1029.17 43.936L1029.59 44.21L1029.88 43.7692L1029.42 43.504L1029.17 43.936ZM1021.75 39.616L1022.01 39.184L1021.61 38.9533L1021.35 39.3277L1021.75 39.616ZM1001.81 35.872V35.372H1001.3L1001.31 35.8853L1001.81 35.872ZM1001.81 29.104L1001.32 28.987L1001.18 29.604H1001.81V29.104ZM1019.52 29.104V29.604H1020.02V29.104H1019.52ZM1029.24 35.872C1029.24 29.3 1027.9 23.88 1024.95 20.0938C1021.98 16.2854 1017.45 14.204 1011.24 14.204V15.204C1017.2 15.204 1021.42 17.1906 1024.16 20.7082C1026.92 24.248 1028.24 29.412 1028.24 35.872H1029.24ZM1011.24 14.204C1005.22 14.204 1000.42 16.3019 997.125 19.8257C993.838 23.3448 992.094 28.2442 992.094 33.784H993.094C993.094 28.4518 994.77 23.8112 997.856 20.5083C1000.94 17.2101 1005.46 15.204 1011.24 15.204V14.204ZM992.094 33.784C992.094 39.3238 993.838 44.2232 997.125 47.7423C1000.42 51.2661 1005.22 53.364 1011.24 53.364V52.364C1005.46 52.364 1000.94 50.3579 997.856 47.0597C994.77 43.7568 993.094 39.1162 993.094 33.784H992.094ZM1011.24 53.364C1021.37 53.364 1026.78 48.5023 1029.59 44.21L1028.75 43.662C1026.09 47.7217 1020.98 52.364 1011.24 52.364V53.364ZM1029.42 43.504L1022.01 39.184L1021.5 40.048L1028.92 44.368L1029.42 43.504ZM1021.35 39.3277C1020.92 39.9311 1020.06 41.1653 1018.48 42.2555C1016.91 43.3419 1014.59 44.3 1011.24 44.3V45.3C1014.8 45.3 1017.31 44.2781 1019.05 43.0785C1020.78 41.8827 1021.72 40.5249 1022.16 39.9043L1021.35 39.3277ZM1011.24 44.3C1006.72 44.3 1002.45 40.948 1002.31 35.8587L1001.31 35.8853C1001.46 41.596 1006.26 45.3 1011.24 45.3V44.3ZM1001.81 36.372H1028.74V35.372H1001.81V36.372ZM1002.3 29.221C1003.18 25.5412 1006.38 22.404 1011.24 22.404V21.404C1005.88 21.404 1002.31 24.8908 1001.32 28.987L1002.3 29.221ZM1011.24 22.404C1014.03 22.404 1015.96 23.6371 1017.22 25.1C1018.49 26.587 1019.02 28.2757 1019.02 29.104H1020.02C1020.02 27.9883 1019.37 26.077 1017.98 24.45C1016.56 22.7989 1014.36 21.404 1011.24 21.404V22.404ZM1019.52 28.604H1001.81V29.604H1019.52V28.604Z" fill="black"/>
</svg>
