<svg width="230" height="41" viewBox="0 0 230 41" fill="none" xmlns="http://www.w3.org/2000/svg">
<path d="M12.616 31.42C8.752 31.42 5.756 30.426 3.628 28.438C1.528 26.45 0.408 23.65 0.268 20.038C0.24 19.282 0.226 18.05 0.226 16.342C0.226 14.606 0.24 13.346 0.268 12.562C0.408 8.978 1.542 6.192 3.67 4.204C5.826 2.188 8.808 1.18 12.616 1.18C15.108 1.18 17.278 1.614 19.126 2.482C20.974 3.322 22.402 4.484 23.41 5.968C24.418 7.424 24.95 9.076 25.006 10.924V11.008C25.006 11.232 24.908 11.428 24.712 11.596C24.544 11.736 24.348 11.806 24.124 11.806H20.134C19.798 11.806 19.546 11.736 19.378 11.596C19.21 11.456 19.07 11.19 18.958 10.798C18.51 9.034 17.768 7.802 16.732 7.102C15.696 6.374 14.31 6.01 12.574 6.01C8.542 6.01 6.442 8.264 6.274 12.772C6.246 13.528 6.232 14.69 6.232 16.258C6.232 17.826 6.246 19.016 6.274 19.828C6.442 24.336 8.542 26.59 12.574 26.59C14.31 26.59 15.696 26.226 16.732 25.498C17.796 24.77 18.538 23.538 18.958 21.802C19.042 21.41 19.168 21.144 19.336 21.004C19.532 20.864 19.798 20.794 20.134 20.794H24.124C24.376 20.794 24.586 20.878 24.754 21.046C24.95 21.214 25.034 21.424 25.006 21.676C24.95 23.524 24.418 25.19 23.41 26.674C22.402 28.13 20.974 29.292 19.126 30.16C17.278 31 15.108 31.42 12.616 31.42ZM28.8529 31C28.5729 31 28.3349 30.902 28.1389 30.706C27.9429 30.51 27.8449 30.272 27.8449 29.992V2.188C27.8449 1.88 27.9429 1.642 28.1389 1.474C28.3349 1.278 28.5729 1.18 28.8529 1.18H32.5909C32.8989 1.18 33.1369 1.278 33.3049 1.474C33.5009 1.642 33.5989 1.88 33.5989 2.188V11.764C35.2789 9.748 37.5469 8.74 40.4029 8.74C42.9789 8.74 45.0369 9.594 46.5769 11.302C48.1169 12.982 48.8869 15.278 48.8869 18.19V29.992C48.8869 30.272 48.7889 30.51 48.5929 30.706C48.4249 30.902 48.1869 31 47.8789 31H44.0989C43.8189 31 43.5809 30.902 43.3849 30.706C43.1889 30.51 43.0909 30.272 43.0909 29.992V18.442C43.0909 16.79 42.6849 15.516 41.8729 14.62C41.0889 13.696 39.9409 13.234 38.4289 13.234C36.9449 13.234 35.7689 13.696 34.9009 14.62C34.0329 15.544 33.5989 16.818 33.5989 18.442V29.992C33.5989 30.272 33.5009 30.51 33.3049 30.706C33.1369 30.902 32.8989 31 32.5909 31H28.8529ZM58.879 31.42C57.451 31.42 56.135 31.14 54.931 30.58C53.755 29.992 52.817 29.208 52.117 28.228C51.445 27.248 51.109 26.17 51.109 24.994C51.109 23.09 51.879 21.55 53.419 20.374C54.959 19.198 57.073 18.4 59.761 17.98L65.515 17.14V16.258C65.515 15.026 65.207 14.102 64.591 13.486C63.975 12.87 62.981 12.562 61.609 12.562C60.685 12.562 59.929 12.744 59.341 13.108C58.781 13.444 58.333 13.78 57.997 14.116C57.661 14.48 57.437 14.718 57.325 14.83C57.213 15.166 57.003 15.334 56.695 15.334H53.461C53.209 15.334 52.985 15.25 52.789 15.082C52.621 14.914 52.537 14.69 52.537 14.41C52.565 13.71 52.901 12.912 53.545 12.016C54.217 11.12 55.239 10.35 56.611 9.706C57.983 9.062 59.663 8.74 61.651 8.74C64.955 8.74 67.363 9.482 68.875 10.966C70.387 12.45 71.143 14.396 71.143 16.804V29.992C71.143 30.272 71.045 30.51 70.849 30.706C70.681 30.902 70.443 31 70.135 31H66.733C66.453 31 66.215 30.902 66.019 30.706C65.823 30.51 65.725 30.272 65.725 29.992V28.354C65.109 29.25 64.227 29.992 63.079 30.58C61.959 31.14 60.559 31.42 58.879 31.42ZM60.307 27.43C61.847 27.43 63.107 26.926 64.087 25.918C65.067 24.91 65.557 23.44 65.557 21.508V20.626L61.357 21.298C59.733 21.55 58.501 21.956 57.661 22.516C56.849 23.076 56.443 23.762 56.443 24.574C56.443 25.47 56.821 26.17 57.577 26.674C58.333 27.178 59.243 27.43 60.307 27.43ZM75.6911 5.548C75.4111 5.548 75.1731 5.45 74.9771 5.254C74.7811 5.058 74.6831 4.82 74.6831 4.54V1.516C74.6831 1.236 74.7811 0.997999 74.9771 0.801998C75.1731 0.605999 75.4111 0.508 75.6911 0.508H79.5131C79.7931 0.508 80.0311 0.605999 80.2271 0.801998C80.4511 0.997999 80.5631 1.236 80.5631 1.516V4.54C80.5631 4.82 80.4651 5.058 80.2691 5.254C80.0731 5.45 79.8211 5.548 79.5131 5.548H75.6911ZM75.8591 31C75.5791 31 75.3411 30.902 75.1451 30.706C74.9491 30.51 74.8511 30.272 74.8511 29.992V10.168C74.8511 9.888 74.9491 9.65 75.1451 9.454C75.3411 9.258 75.5791 9.16 75.8591 9.16H79.3451C79.6531 9.16 79.8911 9.258 80.0591 9.454C80.2551 9.622 80.3531 9.86 80.3531 10.168V29.992C80.3531 30.272 80.2551 30.51 80.0591 30.706C79.8911 30.902 79.6531 31 79.3451 31H75.8591ZM85.2534 31C84.9734 31 84.7354 30.902 84.5394 30.706C84.3434 30.51 84.2454 30.272 84.2454 29.992V10.168C84.2454 9.888 84.3434 9.65 84.5394 9.454C84.7354 9.258 84.9734 9.16 85.2534 9.16H88.6974C88.9774 9.16 89.2154 9.258 89.4114 9.454C89.6074 9.65 89.7054 9.888 89.7054 10.168V11.89C91.3574 9.79 93.6954 8.74 96.7194 8.74C99.2954 8.74 101.339 9.594 102.851 11.302C104.363 12.982 105.119 15.278 105.119 18.19V29.992C105.119 30.272 105.021 30.51 104.825 30.706C104.657 30.902 104.419 31 104.111 31H100.415C100.135 31 99.8974 30.902 99.7014 30.706C99.5054 30.51 99.4074 30.272 99.4074 29.992V18.442C99.4074 16.79 99.0014 15.516 98.1894 14.62C97.4054 13.696 96.2574 13.234 94.7454 13.234C93.2614 13.234 92.0854 13.696 91.2174 14.62C90.3774 15.544 89.9574 16.818 89.9574 18.442V29.992C89.9574 30.272 89.8594 30.51 89.6634 30.706C89.4954 30.902 89.2574 31 88.9494 31H85.2534ZM110.286 31C110.006 31 109.768 30.902 109.572 30.706C109.376 30.51 109.278 30.272 109.278 29.992V2.65C109.278 2.342 109.362 2.09 109.53 1.894C109.726 1.698 109.978 1.6 110.286 1.6H122.466C125.742 1.6 128.178 2.328 129.774 3.784C131.398 5.212 132.21 7.172 132.21 9.664C132.21 11.12 131.846 12.366 131.118 13.402C130.418 14.41 129.592 15.138 128.64 15.586C129.816 16.118 130.796 16.986 131.58 18.19C132.392 19.394 132.798 20.766 132.798 22.306C132.798 24.91 131.916 27.01 130.152 28.606C128.416 30.202 125.966 31 122.802 31H110.286ZM121.71 13.654C123.166 13.654 124.272 13.304 125.028 12.604C125.784 11.904 126.162 10.966 126.162 9.79C126.162 8.586 125.784 7.662 125.028 7.018C124.272 6.346 123.166 6.01 121.71 6.01H115.116V13.654H121.71ZM122.13 26.548C123.586 26.548 124.72 26.156 125.532 25.372C126.344 24.56 126.75 23.538 126.75 22.306C126.75 21.046 126.344 20.024 125.532 19.24C124.72 18.428 123.586 18.022 122.13 18.022H115.116V26.548H122.13ZM136.895 31C136.615 31 136.377 30.902 136.181 30.706C135.985 30.51 135.887 30.272 135.887 29.992V10.21C135.887 9.93 135.985 9.692 136.181 9.496C136.377 9.272 136.615 9.16 136.895 9.16H140.297C140.605 9.16 140.857 9.258 141.053 9.454C141.249 9.65 141.347 9.902 141.347 10.21V11.932C142.019 11.036 142.859 10.35 143.867 9.874C144.903 9.398 146.079 9.16 147.395 9.16H149.117C149.425 9.16 149.663 9.258 149.831 9.454C150.027 9.622 150.125 9.86 150.125 10.168V13.192C150.125 13.472 150.027 13.71 149.831 13.906C149.663 14.102 149.425 14.2 149.117 14.2H145.841C144.525 14.2 143.489 14.578 142.733 15.334C141.977 16.09 141.599 17.126 141.599 18.442V29.992C141.599 30.272 141.501 30.51 141.305 30.706C141.109 30.902 140.857 31 140.549 31H136.895ZM152.561 5.548C152.281 5.548 152.043 5.45 151.847 5.254C151.651 5.058 151.553 4.82 151.553 4.54V1.516C151.553 1.236 151.651 0.997999 151.847 0.801998C152.043 0.605999 152.281 0.508 152.561 0.508H156.383C156.663 0.508 156.901 0.605999 157.097 0.801998C157.321 0.997999 157.433 1.236 157.433 1.516V4.54C157.433 4.82 157.335 5.058 157.139 5.254C156.943 5.45 156.691 5.548 156.383 5.548H152.561ZM152.729 31C152.449 31 152.211 30.902 152.015 30.706C151.819 30.51 151.721 30.272 151.721 29.992V10.168C151.721 9.888 151.819 9.65 152.015 9.454C152.211 9.258 152.449 9.16 152.729 9.16H156.215C156.523 9.16 156.761 9.258 156.929 9.454C157.125 9.622 157.223 9.86 157.223 10.168V29.992C157.223 30.272 157.125 30.51 156.929 30.706C156.761 30.902 156.523 31 156.215 31H152.729ZM169.221 31.42C166.393 31.42 164.223 30.51 162.711 28.69C161.199 26.87 160.387 24.448 160.275 21.424L160.233 20.038L160.275 18.694C160.359 15.754 161.157 13.36 162.669 11.512C164.209 9.664 166.393 8.74 169.221 8.74C171.937 8.74 174.093 9.664 175.689 11.512V2.188C175.689 1.88 175.787 1.642 175.983 1.474C176.179 1.278 176.417 1.18 176.697 1.18H180.267C180.575 1.18 180.813 1.278 180.981 1.474C181.177 1.642 181.275 1.88 181.275 2.188V29.992C181.275 30.272 181.177 30.51 180.981 30.706C180.813 30.902 180.575 31 180.267 31H176.949C176.669 31 176.431 30.902 176.235 30.706C176.039 30.51 175.941 30.272 175.941 29.992V28.438C174.345 30.426 172.105 31.42 169.221 31.42ZM170.775 26.926C172.399 26.926 173.603 26.408 174.387 25.372C175.171 24.336 175.605 23.062 175.689 21.55C175.717 21.214 175.731 20.668 175.731 19.912C175.731 19.184 175.717 18.652 175.689 18.316C175.633 16.916 175.185 15.726 174.345 14.746C173.533 13.738 172.343 13.234 170.775 13.234C167.751 13.234 166.141 15.096 165.945 18.82L165.903 20.08L165.945 21.34C166.141 25.064 167.751 26.926 170.775 26.926ZM195.063 40.24C192.571 40.24 190.555 39.82 189.015 38.98C187.475 38.168 186.383 37.23 185.739 36.166C185.095 35.102 184.773 34.192 184.773 33.436C184.773 33.184 184.871 32.96 185.067 32.764C185.291 32.568 185.529 32.47 185.781 32.47H189.435C189.687 32.47 189.897 32.526 190.065 32.638C190.261 32.778 190.415 33.016 190.527 33.352C190.807 34.108 191.255 34.738 191.871 35.242C192.515 35.774 193.509 36.04 194.853 36.04C196.533 36.04 197.765 35.662 198.549 34.906C199.361 34.15 199.767 32.848 199.767 31V28.144C198.227 29.964 196.071 30.874 193.299 30.874C190.387 30.874 188.189 29.978 186.705 28.186C185.249 26.394 184.465 23.986 184.353 20.962L184.311 19.828L184.353 18.694C184.465 15.726 185.263 13.332 186.747 11.512C188.231 9.664 190.415 8.74 193.299 8.74C194.783 8.74 196.085 9.02 197.205 9.58C198.325 10.14 199.263 10.91 200.019 11.89V10.21C200.019 9.902 200.117 9.65 200.313 9.454C200.509 9.258 200.747 9.16 201.027 9.16H204.429C204.709 9.16 204.947 9.272 205.143 9.496C205.339 9.692 205.437 9.93 205.437 10.21L205.479 30.454C205.479 33.562 204.611 35.97 202.875 37.678C201.139 39.386 198.535 40.24 195.063 40.24ZM194.853 26.422C196.449 26.422 197.639 25.918 198.423 24.91C199.235 23.902 199.683 22.67 199.767 21.214C199.795 20.99 199.809 20.528 199.809 19.828C199.809 19.156 199.795 18.708 199.767 18.484C199.683 17 199.235 15.754 198.423 14.746C197.639 13.738 196.449 13.234 194.853 13.234C191.829 13.234 190.233 15.096 190.065 18.82L190.023 19.828C190.023 21.816 190.373 23.412 191.073 24.616C191.801 25.82 193.061 26.422 194.853 26.422ZM218.802 31.42C215.694 31.42 213.216 30.524 211.368 28.732C209.548 26.912 208.582 24.364 208.47 21.088L208.428 20.038L208.47 18.988C208.61 15.796 209.59 13.29 211.41 11.47C213.258 9.65 215.722 8.74 218.802 8.74C222.106 8.74 224.654 9.748 226.446 11.764C228.266 13.78 229.176 16.468 229.176 19.828V20.71C229.176 20.99 229.078 21.228 228.882 21.424C228.686 21.62 228.434 21.718 228.126 21.718H214.182V22.054C214.238 23.594 214.658 24.896 215.442 25.96C216.254 26.996 217.36 27.514 218.76 27.514C220.412 27.514 221.742 26.87 222.75 25.582C223.002 25.274 223.198 25.078 223.338 24.994C223.506 24.91 223.744 24.868 224.052 24.868H227.664C227.916 24.868 228.126 24.952 228.294 25.12C228.49 25.26 228.588 25.442 228.588 25.666C228.588 26.338 228.182 27.136 227.37 28.06C226.586 28.956 225.452 29.74 223.968 30.412C222.484 31.084 220.762 31.42 218.802 31.42ZM223.464 18.19V18.064C223.464 16.412 223.044 15.082 222.204 14.074C221.392 13.066 220.258 12.562 218.802 12.562C217.346 12.562 216.212 13.066 215.4 14.074C214.588 15.082 214.182 16.412 214.182 18.064V18.19H223.464Z" fill="#E84142"/>
</svg>
