<svg width="232" height="39" viewBox="0 0 232 39" fill="none" xmlns="http://www.w3.org/2000/svg">
<path d="M26.972 9.748C25.544 3.49 20.966 0.339999 14.96 0.339999C6.014 0.339999 0.638 7.606 0.638 16.048C0.638 24.49 5.384 31.756 14.96 31.756C20.924 31.756 24.914 28.858 27.308 22.852L22.184 20.5C21.092 23.986 18.866 26.548 14.96 26.548C8.996 26.548 6.518 21.256 6.518 16.048C6.518 10.84 8.996 5.548 14.96 5.548C18.362 5.548 21.092 7.816 21.554 11.134L26.972 9.748ZM30.272 31H35.396V20.08C35.396 17.476 36.572 14.2 40.436 14.2C43.04 14.2 44.216 15.46 44.216 18.4V31H49.34V16.93C49.34 10.756 45.182 9.244 41.57 9.244C38.672 9.244 36.614 10.378 35.48 11.848H35.396V1.096H30.272V31ZM72.1551 16.216C72.1551 10.168 67.5771 9.244 62.9991 9.244C58.3371 9.244 53.9271 11.176 53.9271 16.174L59.0511 16.384C59.0511 14.074 60.0171 13.192 62.9991 13.192C65.2251 13.192 67.0311 13.78 67.0311 15.88V16.51C65.7291 16.972 63.3351 17.392 61.4871 17.77L59.3451 18.19C56.1951 18.82 52.8771 20.668 52.8771 24.826C52.8771 28.942 56.0691 31.504 60.1011 31.504C62.7471 31.504 65.0571 30.664 67.0311 29.068C67.0311 29.614 67.1991 30.496 67.5351 31H72.9531C72.6591 30.538 72.1551 29.614 72.1551 27.43V16.216ZM67.0311 23.398C67.0311 26.128 63.9651 27.304 61.5711 27.304C59.7231 27.304 58.2531 26.254 58.2531 24.658C58.2531 22.642 59.8491 22.096 61.7811 21.718L64.5951 21.13C65.5191 20.962 66.3591 20.71 67.0311 20.374V23.398ZM76.9477 31H82.0717V9.748H76.9477V31ZM76.9477 6.304H82.0717V1.096H76.9477V6.304ZM87.1196 31H92.2436V19.786C92.2436 15.88 94.3016 14.2 96.7796 14.2C99.4256 14.2 100.308 16.09 100.308 18.022V31H105.432V16.468C105.432 11.806 103.164 9.244 98.1236 9.244C96.0656 9.244 93.8396 10 92.3276 11.848H92.2436V9.748H87.1196V31ZM116.296 17.308H123.562C126.964 17.308 129.064 18.526 129.064 21.886C129.064 24.994 127.006 26.044 123.604 26.044H116.296V17.308ZM116.296 5.548H122.974C126.25 5.548 127.72 7.018 127.72 9.286C127.72 12.142 125.452 13.108 122.974 13.108H116.296V5.548ZM110.668 31H123.394C129.61 31 134.944 29.53 134.944 22.054C134.944 18.484 132.633 15.082 128.518 14.662V14.578C131.794 13.948 133.6 11.806 133.6 8.53C133.6 3.574 129.652 1.096 124.738 1.096H110.668V31ZM138.471 31H143.595V20.71C143.595 16.09 146.745 14.452 150.231 14.452V9.244C147.249 9.244 144.897 10.252 143.679 12.688H143.595V9.748H138.471V31ZM153.237 31H158.361V9.748H153.237V31ZM153.237 6.304H158.361V1.096H153.237V6.304ZM172.481 13.948C176.345 13.948 177.479 17.308 177.521 20.374C177.479 23.44 176.345 26.8 172.481 26.8C168.617 26.8 167.483 23.44 167.441 20.374C167.483 17.308 168.617 13.948 172.481 13.948ZM177.353 31H182.477V1.096H177.353V11.554C175.799 10.126 173.825 9.244 171.305 9.244C165.845 9.244 162.065 14.242 162.065 20.374C162.065 26.506 165.845 31.504 171.305 31.504C174.371 31.504 176.009 30.454 177.269 28.942H177.353V31ZM206.594 9.748H201.47V11.806H201.386C200.126 10.294 198.488 9.244 195.422 9.244C190.13 9.244 186.182 13.192 186.182 19.576C186.182 25.96 190.13 29.908 195.422 29.908C197.27 29.908 199.832 29.32 201.47 27.556V29.824C201.47 32.428 199.958 34.108 196.64 34.108C194.078 34.108 192.65 32.932 192.272 31.462H186.896C186.896 34.108 188.828 38.056 195.548 38.056C202.016 38.056 206.594 36.586 206.594 30.538V9.748ZM201.638 19.576C201.596 21.844 200.462 25.204 196.598 25.204C192.734 25.204 191.6 21.844 191.558 19.576C191.6 17.308 192.734 13.948 196.598 13.948C200.462 13.948 201.596 17.308 201.638 19.576ZM231.383 21.592C231.383 13.99 228.275 9.244 221.177 9.244C214.289 9.244 210.299 14.032 210.299 20.374C210.299 26.716 214.289 31.504 221.177 31.504C226.973 31.504 230.039 28.732 231.635 26.296L227.309 23.776C226.805 24.49 225.209 26.8 221.177 26.8C218.405 26.8 215.759 24.742 215.675 21.592H231.383ZM215.675 17.644C216.221 15.376 218.195 13.444 221.177 13.444C224.621 13.444 226.007 16.51 226.007 17.644H215.675Z" fill="url(#paint0_linear)"/>
<defs>
<linearGradient id="paint0_linear" x1="336.278" y1="19.4999" x2="-47.2475" y2="70.8756" gradientUnits="userSpaceOnUse">
<stop stop-color="#FF1267"/>
<stop offset="1" stop-color="#654BFF"/>
</linearGradient>
</defs>
</svg>
