F<?xml version="1.0" encoding="utf-8"?>
<!-- Generator: Adobe Illustrator 18.0.0, SVG Export Plug-In . SVG Version: 6.00 Build 0)  -->
<!DOCTYPE svg PUBLIC "-//W3C//DTD SVG 1.1//EN" "http://www.w3.org/Graphics/SVG/1.1/DTD/svg11.dtd">
<svg version="1.1" id="Layer_1" xmlns="http://www.w3.org/2000/svg" xmlns:xlink="http://www.w3.org/1999/xlink" x="0px" y="0px"
	 viewBox="0 0 77.6 110.9" enable-background="new 0 0 77.6 110.9" xml:space="preserve">
<g>
	<g>
		<g>
			<path fill="#80225F" d="M67.6,50.9L53.7,37v-1.6c0-10.6-8.6-19.3-19.3-19.3s-19.3,8.6-19.3,19.3v17c0,1.1,0.4,2.1,1.2,2.8
				L30.2,69v7.6c0,2.2,1.8,4,4,4s4-1.8,4-4v-9.2c0-1.1-0.4-2.1-1.2-2.8L23.1,50.7V35.4c0-6.2,5.1-11.3,11.3-11.3s11.3,5.1,11.3,11.3
				v3c0,0.4,0,0.8,0.1,1.2c0,0,0,0,0,0.1c0,0.2,0.1,0.4,0.2,0.6c0.2,0.6,0.7,1.2,1.2,1.6l13.7,13.7v21.1c0,14.5-11.8,26.4-26.4,26.4
				C20.5,102.9,9,92.1,8.1,78.3c-0.1-2.2-2.1-3.9-4.3-3.7c-2.2,0.1-3.9,2.1-3.7,4.3c1.2,18,16.3,32.1,34.3,32.1
				c19,0,34.4-15.4,34.4-34.4V53.8C68.8,52.7,68.3,51.7,67.6,50.9z"/>
			<path fill="#80225F" d="M15.1,73.4v3.2c0,10.6,8.6,19.3,19.3,19.3s19.3-8.6,19.3-19.3V59.9c0-1.1-0.4-2.1-1.2-2.8L38.3,42.9v-7.6
				c0-2.2-1.8-4-4-4s-4,1.8-4,4v9.3c0,1.1,0.4,2.1,1.2,2.8l14.2,14.1v15c0,6.2-5.1,11.3-11.3,11.3s-11.3-5.1-11.3-11.3v-3.7
				c0.3-1.3,0-2.7-1-3.8L22,69c0,0-0.1-0.1-0.1-0.1L8,55V34.4C8,19.8,19.8,8,34.4,8c13.4,0,24.9,10.4,26.2,23.7l0,0.4
				c0.2,2.2,2.1,3.8,4.3,3.7c2.2-0.2,3.8-2.1,3.7-4.3l-0.1-0.6C66.8,13.3,52.1,0,34.4,0C15.4,0,0,15.4,0,34.4v22.3
				c0,1.1,0.4,2.1,1.2,2.8L15.1,73.4z"/>
		</g>
	</g>
	<g>
		<path fill="#80225F" d="M71.2,40.1h-1.5v5.5h-1.1v-5.5h-1.4v-1h4V40.1z M73,41.7v3.9h-1.1v-6.5h1.1l1.8,4.2l1.8-4.2h1v6.5h-1.1
			v-3.9l-1.4,3.1h-0.8L73,41.7z"/>
	</g>
</g>
</svg>
