<svg width="80" height="78" viewBox="0 0 80 78" fill="none" xmlns="http://www.w3.org/2000/svg">
<path fill-rule="evenodd" clip-rule="evenodd" d="M61.3656 1.01849L78.2752 17.9282C79.3129 18.9658 79.3129 20.6482 78.2752 21.6859L61.3656 38.5955C60.3279 39.6332 58.6455 39.6332 57.6079 38.5955C56.5702 37.5579 56.5702 35.8755 57.6079 34.8378L69.9816 22.4641L3.5946 22.4641C2.12712 22.4641 0.937498 21.2745 0.937498 19.807C0.937498 18.3395 2.12712 17.1499 3.5946 17.1499L69.9816 17.1499L57.6079 4.77619C56.5702 3.73853 56.5702 2.05615 57.6079 1.01849C58.6455 -0.019176 60.3279 -0.0191758 61.3656 1.01849Z" fill="url(#paint0_linear_3_979)"/>
<path fill-rule="evenodd" clip-rule="evenodd" d="M18.6261 76.29L1.71647 59.3803C0.678806 58.3426 0.678806 56.6603 1.71647 55.6226L18.6261 38.7129C19.6638 37.6753 21.3462 37.6753 22.3838 38.7129C23.4215 39.7506 23.4215 41.433 22.3838 42.4706L10.0101 54.8444L76.3971 54.8444C77.8646 54.8444 79.0542 56.034 79.0542 57.5015C79.0542 58.9689 77.8646 60.1586 76.3971 60.1586L10.0101 60.1586L22.3838 72.5323C23.4215 73.5699 23.4215 75.2523 22.3838 76.29C21.3462 77.3276 19.6638 77.3276 18.6261 76.29Z" fill="url(#paint1_linear_3_979)"/>
<defs>
<linearGradient id="paint0_linear_3_979" x1="2.7819" y1="0.240236" x2="79.6064" y2="43.6159" gradientUnits="userSpaceOnUse">
<stop stop-color="#A700E1"/>
<stop offset="1" stop-color="#0024E2"/>
</linearGradient>
<linearGradient id="paint1_linear_3_979" x1="77.2098" y1="77.0682" x2="0.385312" y2="33.6926" gradientUnits="userSpaceOnUse">
<stop stop-color="#A700E1"/>
<stop offset="1" stop-color="#0024E2"/>
</linearGradient>
</defs>
</svg>
