<svg width="22" height="24" viewBox="0 0 22 24" fill="none" xmlns="http://www.w3.org/2000/svg">
<path d="M11.7229 23.0453C6.47273 23.0453 2.39413 20.5225 1.07835 16.4614L0.783203 15.5528L1.64613 15.1399C1.73738 15.0954 4.00113 13.9582 3.86032 11.7221C3.71162 9.36141 1.79651 8.25348 1.71484 8.20785L0.873328 7.73246L1.23663 6.83518C2.95852 2.67829 6.87941 0.198242 11.7235 0.198242C15.5306 0.198242 18.8673 1.68582 20.8759 4.27909L21.3829 4.93473L17.3803 10.319L16.487 9.45661C16.4695 9.44027 14.5668 7.64459 12.3583 7.63445C10.2303 7.62431 9.39156 8.42471 9.35664 8.45907L7.78006 6.94727C7.92426 6.7935 9.27553 5.42871 12.3678 5.4518C14.3381 5.46081 16.0403 6.4009 17.0446 7.1123L18.6144 5.00063C16.9866 3.32773 14.5229 2.38202 11.724 2.38202C8.10957 2.38202 5.14117 4.05435 3.62036 6.8977C4.5396 7.66768 5.88863 9.19244 6.04071 11.5846C6.2035 14.17 4.54694 15.7956 3.46941 16.5718C4.74464 19.2377 7.82175 20.8599 11.7246 20.8599C14.4277 20.8599 17.1945 19.8094 18.9028 18.1855L17.1178 15.9522C16.1676 16.6241 14.5437 17.4972 12.4202 17.6076C9.40508 17.7625 7.62235 16.3774 7.548 16.3183L8.90378 14.6071C8.94546 14.6375 10.1565 15.5399 12.3065 15.4266C14.8513 15.296 16.4836 13.6642 16.4988 13.6467L17.3623 12.7686L18.1345 13.7267L21.7422 18.2435L21.1891 18.9256C19.1597 21.4282 15.4455 23.0453 11.7229 23.0453Z" fill="url(#paint0_linear_3_317)"/>
<defs>
<linearGradient id="paint0_linear_3_317" x1="20.8336" y1="3.80369" x2="3.11815" y2="19.3129" gradientUnits="userSpaceOnUse">
<stop offset="0.0733" stop-color="#F46881"/>
<stop offset="0.083" stop-color="#F36682"/>
<stop offset="0.2596" stop-color="#E74596"/>
<stop offset="0.407" stop-color="#E031A2"/>
<stop offset="0.5065" stop-color="#DD2AA6"/>
<stop offset="0.8882" stop-color="#5210E2"/>
</linearGradient>
</defs>
</svg>
