<svg viewBox="0 0 14 14" xmlns="http://www.w3.org/2000/svg">
  <path d="M12.75 3.84375H10.4438C10.6562 3.50938 10.7812 3.1125 10.7812 2.6875C10.7812 1.49844 9.81406 0.53125 8.625 0.53125C7.97813 0.53125 7.39531 0.81875 7 1.27187C6.60469 0.81875 6.02187 0.53125 5.375 0.53125C4.18594 0.53125 3.21875 1.49844 3.21875 2.6875C3.21875 3.1125 3.34219 3.50938 3.55625 3.84375H1.25C0.973437 3.84375 0.75 4.06719 0.75 4.34375V7.46875C0.75 7.5375 0.80625 7.59375 0.875 7.59375H1.5V12.9688C1.5 13.2453 1.72344 13.4688 2 13.4688H12C12.2766 13.4688 12.5 13.2453 12.5 12.9688V7.59375H13.125C13.1938 7.59375 13.25 7.5375 13.25 7.46875V4.34375C13.25 4.06719 13.0266 3.84375 12.75 3.84375ZM7.53125 2.6875C7.53125 2.08438 8.02187 1.59375 8.625 1.59375C9.22812 1.59375 9.71875 2.08438 9.71875 2.6875C9.71875 3.29063 9.22812 3.78125 8.625 3.78125H7.53125V2.6875ZM5.375 1.59375C5.97813 1.59375 6.46875 2.08438 6.46875 2.6875V3.78125H5.375C4.77187 3.78125 4.28125 3.29063 4.28125 2.6875C4.28125 2.08438 4.77187 1.59375 5.375 1.59375ZM1.8125 6.53125V4.90625H6.46875V6.53125H1.8125ZM2.5625 7.59375H6.46875V12.4062H2.5625V7.59375ZM11.4375 12.4062H7.53125V7.59375H11.4375V12.4062ZM12.1875 6.53125H7.53125V4.90625H12.1875V6.53125Z" />
</svg>
