<svg width="3947" height="1589" viewBox="0 0 3947 1589" fill="none" xmlns="http://www.w3.org/2000/svg">
<g opacity="0.5">
<path opacity="0.9" d="M3514.76 381.7C3531.6 444.552 3505.64 516.385 3442.71 592.851C3379.87 669.238 3280.56 749.607 3152.31 829.192C2895.79 988.343 2523.98 1143.94 2097.7 1258.17C1671.41 1372.39 1271.62 1423.54 969.89 1413.97C819.005 1409.19 692.851 1389.22 600.217 1354.5C507.487 1319.74 449.107 1270.5 432.264 1207.64C415.426 1144.79 441.364 1072.96 504.29 996.494C567.151 920.106 666.422 839.737 794.699 760.152C1051.22 601.001 1423.02 445.401 1849.31 331.177C2275.6 216.953 2675.39 165.806 2977.11 175.374C3128 180.158 3254.16 200.124 3346.8 234.846C3439.54 269.604 3497.88 318.843 3514.76 381.7Z" stroke="#5A61A3" stroke-opacity="0.4" stroke-width="6.88012"/>
<path opacity="0.3" d="M3936.28 268.738C3957.84 349.185 3924.59 440.938 3844.41 538.361C3764.33 635.705 3637.87 738.072 3474.54 839.407C3147.9 1042.05 2674.53 1240.16 2131.84 1385.57C1589.14 1530.98 1080.14 1596.11 695.95 1583.92C503.835 1577.83 343.129 1552.41 225.084 1508.16C106.939 1463.88 32.2713 1401.04 10.7182 1320.59C-10.8395 1240.15 22.4052 1148.4 102.581 1050.97C182.689 953.626 309.15 851.264 472.48 749.929C799.106 547.282 1272.48 349.18 1815.17 203.767C2357.87 58.3521 2866.87 -6.77517 3251.06 5.40952C3443.16 11.5026 3603.88 36.9232 3721.95 81.172C3840.05 125.457 3914.73 188.295 3936.28 268.738Z" stroke="#5A61A3" stroke-width="6.88012"/>
<path opacity="0.9" d="M3143.27 481.227C3155.96 528.585 3136.46 582.865 3088.73 640.869C3041.07 698.786 2965.76 759.771 2868.37 820.197C2673.63 941.021 2391.33 1059.18 2067.62 1145.91C1743.91 1232.65 1440.35 1271.48 1211.29 1264.21C1096.74 1260.57 1001.02 1245.42 930.786 1219.09C860.453 1192.72 816.425 1155.46 803.733 1108.11C791.046 1060.75 810.549 1006.46 858.274 948.465C905.935 890.548 981.249 829.558 1078.64 769.137C1273.37 648.313 1555.68 530.158 1879.39 443.423C2203.09 356.683 2506.65 317.856 2735.72 325.122C2850.27 328.759 2945.98 343.918 3016.22 370.246C3086.55 396.611 3130.58 433.873 3143.27 481.227Z" stroke="#5A61A3" stroke-opacity="0.6" stroke-width="6.88012"/>
<path opacity="0.9" d="M2886.57 550.023C2896.39 586.671 2881.34 628.828 2844.12 674.072C2806.97 719.233 2748.21 766.825 2672.17 814.009C2520.13 908.349 2299.68 1000.63 2046.87 1068.37C1794.06 1136.11 1557 1166.42 1378.16 1160.74C1288.72 1157.9 1214.04 1146.05 1159.28 1125.52C1104.42 1104.95 1070.31 1075.97 1060.49 1039.32C1050.67 1002.67 1065.72 960.514 1102.94 915.27C1140.1 870.109 1198.85 822.517 1274.89 775.333C1426.93 680.989 1647.38 588.712 1900.2 520.971C2153.01 453.229 2390.06 422.92 2568.9 428.603C2658.35 431.447 2733.03 443.285 2787.78 463.82C2842.64 484.387 2876.75 513.371 2886.57 550.023Z" stroke="#5A61A3" stroke-opacity="0.6" stroke-width="6.88012"/>
<path opacity="0.9" d="M2661.18 610.405C2668.48 637.646 2657.34 669.152 2629.34 703.186C2601.4 737.137 2557.18 772.968 2499.88 808.52C2385.32 879.601 2219.18 949.155 2028.6 1000.22C1838.02 1051.29 1659.35 1074.13 1524.6 1069.85C1457.21 1067.7 1401 1058.78 1359.83 1043.35C1318.56 1027.87 1293.16 1006.16 1285.86 978.923C1278.56 951.682 1289.7 920.176 1317.7 886.142C1345.64 852.191 1389.86 816.359 1447.16 780.807C1561.71 709.722 1727.86 640.173 1918.44 589.109C2109.02 538.04 2287.69 515.203 2422.44 519.482C2489.83 521.624 2546.04 530.545 2587.21 545.98C2628.48 561.455 2653.88 583.164 2661.18 610.405Z" stroke="#5A61A3" stroke-opacity="0.6" stroke-width="6.88012"/>
<path opacity="0.9" d="M2462.19 663.73C2467.26 682.655 2459.56 704.744 2439.69 728.875C2419.9 752.928 2388.51 778.366 2347.75 803.644C2266.29 854.181 2148.08 903.662 2012.45 940.008C1876.82 976.348 1749.7 992.599 1653.88 989.567C1605.95 988.054 1566.05 981.715 1536.87 970.785C1507.61 959.822 1489.89 944.539 1484.82 925.614C1479.75 906.69 1487.45 884.595 1507.31 860.464C1527.11 836.416 1558.5 810.978 1599.25 785.696C1680.72 735.164 1798.93 685.677 1934.56 649.336C2070.19 612.996 2197.31 596.74 2293.13 599.772C2341.06 601.29 2380.96 607.629 2410.13 618.555C2439.4 629.522 2457.12 644.805 2462.19 663.73Z" stroke="#5A61A3" stroke-opacity="0.6" stroke-width="6.88012"/>
</g>
</svg>
